<svg width="114" height="16" viewBox="0 0 114 16" fill="none" xmlns="http://www.w3.org/2000/svg">
<path d="M7.3335 11.332H8.66683V8.66536H11.3335V7.33203H8.66683V4.66536H7.3335V7.33203H4.66683V8.66536H7.3335V11.332ZM8.00016 14.6654C7.07794 14.6654 6.21127 14.4931 5.40016 14.1487C4.58905 13.7931 3.8835 13.3154 3.2835 12.7154C2.6835 12.1154 2.20572 11.4098 1.85016 10.5987C1.50572 9.78759 1.3335 8.92092 1.3335 7.9987C1.3335 7.07647 1.50572 6.20981 1.85016 5.3987C2.20572 4.58759 2.6835 3.88203 3.2835 3.28203C3.8835 2.68203 4.58905 2.20981 5.40016 1.86536C6.21127 1.50981 7.07794 1.33203 8.00016 1.33203C8.92239 1.33203 9.78905 1.50981 10.6002 1.86536C11.4113 2.20981 12.1168 2.68203 12.7168 3.28203C13.3168 3.88203 13.7891 4.58759 14.1335 5.3987C14.4891 6.20981 14.6668 7.07647 14.6668 7.9987C14.6668 8.92092 14.4891 9.78759 14.1335 10.5987C13.7891 11.4098 13.3168 12.1154 12.7168 12.7154C12.1168 13.3154 11.4113 13.7931 10.6002 14.1487C9.78905 14.4931 8.92239 14.6654 8.00016 14.6654ZM8.00016 13.332C9.48905 13.332 10.7502 12.8154 11.7835 11.782C12.8168 10.7487 13.3335 9.48759 13.3335 7.9987C13.3335 6.50981 12.8168 5.2487 11.7835 4.21536C10.7502 3.18203 9.48905 2.66536 8.00016 2.66536C6.51127 2.66536 5.25016 3.18203 4.21683 4.21536C3.1835 5.2487 2.66683 6.50981 2.66683 7.9987C2.66683 9.48759 3.1835 10.7487 4.21683 11.782C5.25016 12.8154 6.51127 13.332 8.00016 13.332Z" fill="#38AEE0"/>
<path d="M24 13L27.836 3.662H29.166L33.058 13H31.028L30.272 11.124H26.674L25.904 13H24ZM27.248 9.542H29.656L28.452 6.476L27.248 9.542ZM38.0814 13L37.9974 12.482C37.8294 12.6593 37.61 12.818 37.3394 12.958C37.0687 13.0887 36.7467 13.154 36.3734 13.154C35.8787 13.154 35.4447 13.0607 35.0714 12.874C34.698 12.6873 34.3807 12.4353 34.1194 12.118C33.8674 11.7913 33.676 11.4133 33.5454 10.984C33.4147 10.5547 33.3494 10.0927 33.3494 9.598C33.3494 9.15933 33.4194 8.73 33.5594 8.31C33.6994 7.89 33.9094 7.51667 34.1894 7.19C34.4694 6.854 34.8194 6.588 35.2394 6.392C35.6594 6.18667 36.154 6.084 36.7234 6.084C37.0874 6.084 37.4887 6.14933 37.9274 6.28V3.746L39.7474 3.466V13H38.0814ZM37.9274 7.75C37.5634 7.61933 37.2367 7.554 36.9474 7.554C36.6394 7.554 36.3687 7.61 36.1354 7.722C35.9114 7.834 35.7247 7.988 35.5754 8.184C35.426 8.37067 35.314 8.58533 35.2394 8.828C35.1647 9.06133 35.1274 9.304 35.1274 9.556C35.1274 9.84533 35.1554 10.1207 35.2114 10.382C35.2767 10.634 35.3747 10.858 35.5054 11.054C35.636 11.2407 35.7994 11.39 35.9954 11.502C36.2007 11.614 36.448 11.67 36.7374 11.67C36.9614 11.67 37.19 11.614 37.4234 11.502C37.6567 11.3807 37.8247 11.2407 37.9274 11.082V7.75ZM45.8743 13L45.7903 12.482C45.6223 12.6593 45.403 12.818 45.1323 12.958C44.8617 13.0887 44.5397 13.154 44.1663 13.154C43.6717 13.154 43.2377 13.0607 42.8643 12.874C42.491 12.6873 42.1737 12.4353 41.9123 12.118C41.6603 11.7913 41.469 11.4133 41.3383 10.984C41.2077 10.5547 41.1423 10.0927 41.1423 9.598C41.1423 9.15933 41.2123 8.73 41.3523 8.31C41.4923 7.89 41.7023 7.51667 41.9823 7.19C42.2623 6.854 42.6123 6.588 43.0323 6.392C43.4523 6.18667 43.947 6.084 44.5163 6.084C44.8803 6.084 45.2817 6.14933 45.7203 6.28V3.746L47.5403 3.466V13H45.8743ZM45.7203 7.75C45.3563 7.61933 45.0297 7.554 44.7403 7.554C44.4323 7.554 44.1617 7.61 43.9283 7.722C43.7043 7.834 43.5177 7.988 43.3683 8.184C43.219 8.37067 43.107 8.58533 43.0323 8.828C42.9577 9.06133 42.9203 9.304 42.9203 9.556C42.9203 9.84533 42.9483 10.1207 43.0043 10.382C43.0697 10.634 43.1677 10.858 43.2983 11.054C43.429 11.2407 43.5923 11.39 43.7883 11.502C43.9937 11.614 44.241 11.67 44.5303 11.67C44.7543 11.67 44.983 11.614 45.2163 11.502C45.4497 11.3807 45.6177 11.2407 45.7203 11.082V7.75ZM59.424 11.138C59.004 11.8847 58.528 12.4167 57.996 12.734C57.464 13.042 56.8154 13.196 56.05 13.196C55.434 13.196 54.8694 13.0887 54.356 12.874C53.8427 12.6593 53.3994 12.3467 53.026 11.936C52.662 11.516 52.3774 11.0073 52.172 10.41C51.976 9.81267 51.878 9.13133 51.878 8.366C51.878 7.526 51.99 6.80267 52.214 6.196C52.4474 5.58 52.7507 5.07133 53.124 4.67C53.5067 4.25933 53.9454 3.956 54.44 3.76C54.944 3.564 55.462 3.466 55.994 3.466C56.862 3.466 57.562 3.65733 58.094 4.04C58.626 4.41333 59.0507 4.95 59.368 5.65L57.842 6.49C57.6834 6.07933 57.464 5.748 57.184 5.496C56.904 5.244 56.5214 5.118 56.036 5.118C55.7467 5.118 55.4667 5.18333 55.196 5.314C54.9254 5.44467 54.6874 5.64533 54.482 5.916C54.2767 6.18667 54.1087 6.52733 53.978 6.938C53.8567 7.33933 53.796 7.81533 53.796 8.366C53.796 8.85133 53.852 9.29 53.964 9.682C54.0854 10.074 54.2487 10.4053 54.454 10.676C54.6687 10.9467 54.916 11.1567 55.196 11.306C55.4854 11.4553 55.7934 11.53 56.12 11.53C56.54 11.53 56.8947 11.4367 57.184 11.25C57.4827 11.054 57.7394 10.718 57.954 10.242L59.424 11.138ZM60.6756 13V3.746L62.5096 3.466V6.7C62.7336 6.532 62.9996 6.38733 63.3076 6.266C63.6156 6.14467 63.9936 6.084 64.4416 6.084C64.8896 6.084 65.2723 6.154 65.5896 6.294C65.9163 6.42467 66.1776 6.616 66.3736 6.868C66.579 7.12 66.7283 7.428 66.8216 7.792C66.9243 8.14667 66.9756 8.548 66.9756 8.996V13H65.1416V9.122C65.1416 8.87933 65.1276 8.66 65.0996 8.464C65.0716 8.268 65.0156 8.10467 64.9316 7.974C64.857 7.834 64.745 7.72667 64.5956 7.652C64.4463 7.57733 64.2503 7.54 64.0076 7.54C63.737 7.54 63.4663 7.60533 63.1956 7.736C62.9343 7.86667 62.7056 8.02067 62.5096 8.198V13H60.6756ZM69.6657 5.482C69.3017 5.482 69.0264 5.37933 68.8397 5.174C68.6624 4.96867 68.5737 4.74 68.5737 4.488C68.5737 4.24533 68.6624 4.02133 68.8397 3.816C69.0264 3.61067 69.3017 3.508 69.6657 3.508C70.0297 3.508 70.3004 3.61067 70.4777 3.816C70.6644 4.02133 70.7577 4.24533 70.7577 4.488C70.7577 4.74 70.6644 4.96867 70.4777 5.174C70.3004 5.37933 70.0297 5.482 69.6657 5.482ZM68.7557 13V6.434L70.5757 6.154V13H68.7557ZM72.3924 13V3.746L74.2264 3.466V13H72.3924ZM80.3548 13L80.2708 12.482C80.1028 12.6593 79.8835 12.818 79.6128 12.958C79.3421 13.0887 79.0201 13.154 78.6468 13.154C78.1521 13.154 77.7181 13.0607 77.3448 12.874C76.9715 12.6873 76.6541 12.4353 76.3928 12.118C76.1408 11.7913 75.9495 11.4133 75.8188 10.984C75.6881 10.5547 75.6228 10.0927 75.6228 9.598C75.6228 9.15933 75.6928 8.73 75.8328 8.31C75.9728 7.89 76.1828 7.51667 76.4628 7.19C76.7428 6.854 77.0928 6.588 77.5128 6.392C77.9328 6.18667 78.4275 6.084 78.9968 6.084C79.3608 6.084 79.7621 6.14933 80.2008 6.28V3.746L82.0208 3.466V13H80.3548ZM80.2008 7.75C79.8368 7.61933 79.5101 7.554 79.2208 7.554C78.9128 7.554 78.6421 7.61 78.4088 7.722C78.1848 7.834 77.9981 7.988 77.8488 8.184C77.6995 8.37067 77.5875 8.58533 77.5128 8.828C77.4381 9.06133 77.4008 9.304 77.4008 9.556C77.4008 9.84533 77.4288 10.1207 77.4848 10.382C77.5501 10.634 77.6481 10.858 77.7788 11.054C77.9095 11.2407 78.0728 11.39 78.2688 11.502C78.4741 11.614 78.7215 11.67 79.0108 11.67C79.2348 11.67 79.4635 11.614 79.6968 11.502C79.9301 11.3807 80.0981 11.2407 80.2008 11.082V7.75ZM86.8065 13V3.662H89.5785C89.9332 3.662 90.3252 3.69 90.7545 3.746C91.1838 3.79267 91.5945 3.90467 91.9865 4.082C92.3972 4.26867 92.7518 4.50667 93.0505 4.796C93.3492 5.08533 93.5965 5.41667 93.7925 5.79C93.9885 6.154 94.1332 6.55067 94.2265 6.98C94.3292 7.4 94.3805 7.834 94.3805 8.282C94.3805 8.72067 94.3292 9.15467 94.2265 9.584C94.1332 10.004 93.9838 10.4007 93.7785 10.774C93.5825 11.1473 93.3305 11.488 93.0225 11.796C92.7238 12.0947 92.3738 12.3373 91.9725 12.524C91.3005 12.8413 90.5258 13 89.6485 13H86.8065ZM88.6965 11.32H89.4525C90.1432 11.32 90.7078 11.2033 91.1465 10.97C91.5945 10.7367 91.9258 10.382 92.1405 9.906C92.3552 9.42067 92.4625 8.90733 92.4625 8.366C92.4625 7.834 92.3645 7.33467 92.1685 6.868C91.9818 6.392 91.6785 6.02333 91.2585 5.762C91.0438 5.622 90.7778 5.51933 90.4605 5.454C90.1432 5.37933 89.8212 5.342 89.4945 5.342H88.6965V11.32ZM99.523 13L99.439 12.496C99.243 12.7013 98.991 12.8647 98.683 12.986C98.3843 13.098 98.053 13.154 97.689 13.154C97.3903 13.154 97.0963 13.1027 96.807 13C96.527 12.9067 96.2797 12.7713 96.065 12.594C95.8503 12.4073 95.6777 12.1833 95.547 11.922C95.4163 11.6513 95.351 11.348 95.351 11.012C95.351 10.5173 95.4817 10.1207 95.743 9.822C96.0137 9.514 96.3497 9.276 96.751 9.108C97.1523 8.94 97.5863 8.82333 98.053 8.758C98.5197 8.69267 98.9537 8.646 99.355 8.618V8.394C99.355 8.114 99.271 7.89467 99.103 7.736C98.9443 7.568 98.7017 7.484 98.375 7.484C98.1137 7.484 97.8757 7.54 97.661 7.652C97.4557 7.75467 97.2737 7.89933 97.115 8.086L95.869 7.218C96.0463 6.994 96.247 6.80733 96.471 6.658C96.7043 6.50867 96.9377 6.392 97.171 6.308C97.4137 6.224 97.6517 6.168 97.885 6.14C98.1183 6.10267 98.333 6.084 98.529 6.084C98.921 6.084 99.2803 6.13533 99.607 6.238C99.9337 6.33133 100.214 6.48533 100.447 6.7C100.69 6.90533 100.876 7.17133 101.007 7.498C101.138 7.81533 101.203 8.20267 101.203 8.66V13H99.523ZM99.369 9.85C99.1077 9.86867 98.8417 9.892 98.571 9.92C98.3097 9.948 98.0717 9.99933 97.857 10.074C97.6423 10.1487 97.465 10.2607 97.325 10.41C97.1943 10.55 97.129 10.7367 97.129 10.97C97.129 11.194 97.213 11.376 97.381 11.516C97.549 11.6467 97.7963 11.712 98.123 11.712C98.3563 11.712 98.5803 11.6653 98.795 11.572C99.019 11.4787 99.2103 11.362 99.369 11.222V9.85ZM105.09 7.652V11.096C105.09 11.3107 105.137 11.46 105.23 11.544C105.333 11.6187 105.431 11.656 105.524 11.656C105.711 11.656 105.893 11.6093 106.07 11.516C106.248 11.4227 106.402 11.3247 106.532 11.222L107.19 12.468C106.882 12.6733 106.56 12.8413 106.224 12.972C105.888 13.0933 105.524 13.154 105.132 13.154C104.899 13.154 104.67 13.1213 104.446 13.056C104.222 12.9907 104.022 12.888 103.844 12.748C103.676 12.608 103.536 12.426 103.424 12.202C103.322 11.9687 103.27 11.6887 103.27 11.362V7.652H102.276V6.252H103.27V4.684L105.09 4.404V6.252H106.84L106.616 7.652H105.09ZM111.869 13L111.785 12.496C111.589 12.7013 111.337 12.8647 111.029 12.986C110.73 13.098 110.399 13.154 110.035 13.154C109.736 13.154 109.442 13.1027 109.153 13C108.873 12.9067 108.625 12.7713 108.411 12.594C108.196 12.4073 108.023 12.1833 107.893 11.922C107.762 11.6513 107.697 11.348 107.697 11.012C107.697 10.5173 107.827 10.1207 108.089 9.822C108.359 9.514 108.695 9.276 109.097 9.108C109.498 8.94 109.932 8.82333 110.399 8.758C110.865 8.69267 111.299 8.646 111.701 8.618V8.394C111.701 8.114 111.617 7.89467 111.449 7.736C111.29 7.568 111.047 7.484 110.721 7.484C110.459 7.484 110.221 7.54 110.007 7.652C109.801 7.75467 109.619 7.89933 109.461 8.086L108.215 7.218C108.392 6.994 108.593 6.80733 108.817 6.658C109.05 6.50867 109.283 6.392 109.517 6.308C109.759 6.224 109.997 6.168 110.231 6.14C110.464 6.10267 110.679 6.084 110.875 6.084C111.267 6.084 111.626 6.13533 111.953 6.238C112.279 6.33133 112.559 6.48533 112.793 6.7C113.035 6.90533 113.222 7.17133 113.353 7.498C113.483 7.81533 113.549 8.20267 113.549 8.66V13H111.869ZM111.715 9.85C111.453 9.86867 111.187 9.892 110.917 9.92C110.655 9.948 110.417 9.99933 110.203 10.074C109.988 10.1487 109.811 10.2607 109.671 10.41C109.54 10.55 109.475 10.7367 109.475 10.97C109.475 11.194 109.559 11.376 109.727 11.516C109.895 11.6467 110.142 11.712 110.469 11.712C110.702 11.712 110.926 11.6653 111.141 11.572C111.365 11.4787 111.556 11.362 111.715 11.222V9.85Z" fill="#38AEE0"/>
</svg>
