<svg width="11" height="15" viewBox="0 0 11 15" fill="none" xmlns="http://www.w3.org/2000/svg">
<path d="M5.62355 14.5C6.46861 14.5 7.15409 13.7166 7.15409 12.75H4.09302C4.09302 13.7166 4.7785 14.5 5.62355 14.5ZM10.7769 10.4063C10.3147 9.8387 9.44974 8.98476 9.44974 6.1875C9.44974 4.06289 8.14628 2.36211 6.38869 1.94484V1.375C6.38869 0.891836 6.04608 0.5 5.62355 0.5C5.20102 0.5 4.85841 0.891836 4.85841 1.375V1.94485C3.10082 2.36211 1.79734 4.06289 1.79734 6.1875C1.79734 8.98476 0.932421 9.8387 0.470178 10.4063C0.326623 10.5827 0.26298 10.7936 0.264177 11C0.266809 11.4484 0.574733 11.875 1.03219 11.875H10.2149C10.6723 11.875 10.9805 11.4484 10.9829 11C10.9841 10.7936 10.9205 10.5824 10.7769 10.4063Z" fill="#6B7280"/>
</svg>
