<svg width="28" height="34" viewBox="0 0 28 34" fill="none" xmlns="http://www.w3.org/2000/svg">
<path d="M7.5 20L6.5 19V15H3V13L4.5 10.35V8H3V6H12V8H10.5V10.35L12 13V15H8.5V19L7.5 20ZM5.3 13H9.7L8.5 10.9V8H6.5V10.9L5.3 13ZM14.1 4H3C3 3.45 3.19583 2.97917 3.5875 2.5875C3.97917 2.19583 4.45 2 5 2H14.1C14.0667 2.16667 14.0417 2.32917 14.025 2.4875C14.0083 2.64583 14 2.81667 14 3C14 3.18333 14.0083 3.35417 14.025 3.5125C14.0417 3.67083 14.0667 3.83333 14.1 4ZM21 18H13V16H21V7.575C21.4 7.39167 21.7667 7.16667 22.1 6.9C22.4333 6.63333 22.7333 6.33333 23 6V16C23 16.55 22.8042 17.0208 22.4125 17.4125C22.0208 17.8042 21.55 18 21 18Z" fill="#5856D6"/>
<path d="M16.875 5.125C17.4583 5.70833 18.1667 6 19 6C19.8333 6 20.5417 5.70833 21.125 5.125C21.7083 4.54167 22 3.83333 22 3C22 2.16667 21.7083 1.45833 21.125 0.875C20.5417 0.291667 19.8333 0 19 0C18.1667 0 17.4583 0.291667 16.875 0.875C16.2917 1.45833 16 2.16667 16 3C16 3.83333 16.2917 4.54167 16.875 5.125Z" fill="#5856D6"/>
<path d="M5.28922 29.234V23.704C5.28922 23.368 5.47122 23.06 5.91922 23.06C6.39522 23.06 6.57722 23.368 6.57722 23.704V32.496C6.57722 32.832 6.38122 33.14 5.90522 33.14C5.63922 33.14 5.45722 33.042 5.24722 32.664L1.50922 26H1.49522C1.52322 26.252 1.55122 26.588 1.55122 26.966V32.496C1.55122 32.832 1.36922 33.14 0.921219 33.14C0.445219 33.14 0.263219 32.832 0.263219 32.496V23.704C0.263219 23.368 0.459219 23.06 0.935219 23.06C1.20122 23.06 1.38322 23.158 1.59322 23.536L5.33122 30.2H5.34522C5.31722 29.948 5.28922 29.612 5.28922 29.234ZM11.0788 31.936H11.6668C12.6048 31.936 12.9828 31.32 12.9828 30.452V28.268C12.9828 27.4 12.6048 26.784 11.6668 26.784H11.0788C10.1408 26.784 9.76277 27.4 9.76277 28.268V30.452C9.76277 31.32 10.1408 31.936 11.0788 31.936ZM11.6668 33.14H11.0788C9.32877 33.14 8.50277 31.992 8.50277 30.452V28.268C8.50277 26.728 9.32877 25.58 11.0788 25.58H11.6668C13.4168 25.58 14.2428 26.728 14.2428 28.268V30.452C14.2428 31.992 13.4168 33.14 11.6668 33.14ZM19.1609 31.796H19.7769C20.1269 31.796 20.3929 31.978 20.3929 32.398C20.3929 32.818 20.1269 33 19.7769 33H19.1609C17.4109 33 16.5709 32.02 16.5709 30.452V26.924H15.6609C15.3389 26.924 15.0449 26.77 15.0449 26.322C15.0449 25.874 15.3389 25.72 15.6609 25.72H16.5709V24.404C16.5709 24.068 16.7529 23.76 17.2009 23.76C17.6489 23.76 17.8309 24.068 17.8309 24.404V25.72H19.6789C20.0009 25.72 20.2949 25.902 20.2949 26.322C20.2949 26.742 20.0009 26.924 19.6789 26.924H17.8309V30.452C17.8309 31.292 18.2229 31.796 19.1609 31.796ZM27.077 28.128V29.29C27.077 29.71 26.811 29.906 26.461 29.906H22.751V30.256C22.751 31.152 23.171 31.824 24.109 31.824H25.929C26.279 31.824 26.545 31.992 26.545 32.412C26.545 32.832 26.279 33 25.929 33H24.109C22.359 33 21.491 31.824 21.491 30.256V28.128C21.491 26.588 22.317 25.58 24.067 25.58H24.501C26.251 25.58 27.077 26.588 27.077 28.128ZM22.751 28.73H25.817V28.128C25.817 27.302 25.439 26.756 24.501 26.756H24.067C23.129 26.756 22.751 27.302 22.751 28.128V28.73Z" fill="#4B5563"/>
</svg>

