<svg width="47" height="48" viewBox="0 0 47 48" fill="none" xmlns="http://www.w3.org/2000/svg">
<path d="M36.25 0L44.75 8V46C44.75 47.1046 43.8546 48 42.75 48H4.25C3.14543 48 2.25 47.1046 2.25 46V2C2.25 0.895431 3.14543 2.11397e-08 4.25 0H36.25Z" fill="#E4E7EC"/>
<path d="M44.75 8H36.25V0L44.75 8Z" fill="#98A2B3"/>
<rect x="0.125" y="20" width="46.75" height="20" rx="2" fill="#CC400C"/>
<path d="M8.82764 35.82V24.1836H13.1913C14.0852 24.1836 14.8352 24.3503 15.4413 24.6836C16.0511 25.0169 16.5113 25.4753 16.822 26.0586C17.1363 26.6381 17.2935 27.2972 17.2935 28.0359C17.2935 28.7821 17.1363 29.445 16.822 30.0245C16.5076 30.604 16.0435 31.0605 15.4299 31.3938C14.8163 31.7234 14.0606 31.8881 13.1629 31.8881H10.2708V30.1552H12.8788C13.4015 30.1552 13.8295 30.0643 14.1629 29.8825C14.4962 29.7006 14.7424 29.4506 14.9015 29.1325C15.0644 28.8143 15.1458 28.4487 15.1458 28.0359C15.1458 27.623 15.0644 27.2594 14.9015 26.945C14.7424 26.6306 14.4943 26.3862 14.1572 26.212C13.8238 26.034 13.3939 25.945 12.8674 25.945H10.9356V35.82H8.82764Z" fill="white"/>
<path d="M23.0677 35.82H19.1245V24.1836H23.1472C24.3025 24.1836 25.295 24.4165 26.1245 24.8825C26.9578 25.3446 27.598 26.0094 28.045 26.8768C28.4919 27.7442 28.7154 28.7821 28.7154 29.9904C28.7154 31.2025 28.49 32.2442 28.0393 33.1154C27.5923 33.9866 26.9465 34.6552 26.1018 35.1211C25.2609 35.587 24.2495 35.82 23.0677 35.82ZM21.2325 33.9961H22.9654C23.776 33.9961 24.4522 33.8484 24.9938 33.5529C25.5355 33.2537 25.9427 32.8086 26.2154 32.2177C26.4881 31.623 26.6245 30.8806 26.6245 29.9904C26.6245 29.1003 26.4881 28.3616 26.2154 27.7745C25.9427 27.1836 25.5393 26.7423 25.0052 26.4506C24.4749 26.1552 23.8158 26.0075 23.0279 26.0075H21.2325V33.9961Z" fill="white"/>
<path d="M30.7183 35.82V24.1836H38.1728V25.9506H32.8262V29.1097H37.6614V30.8768H32.8262V35.82H30.7183Z" fill="white"/>
</svg>
