<svg width="90" height="38" viewBox="0 0 90 38" fill="none" xmlns="http://www.w3.org/2000/svg">
<path d="M4 0.5H86C87.933 0.5 89.5 2.067 89.5 4V34C89.5 35.933 87.933 37.5 86 37.5H4C2.067 37.5 0.5 35.933 0.5 34V4L0.504883 3.82031C0.598422 1.97083 2.12727 0.5 4 0.5Z" fill="white"/>
<path d="M4 0.5H86C87.933 0.5 89.5 2.067 89.5 4V34C89.5 35.933 87.933 37.5 86 37.5H4C2.067 37.5 0.5 35.933 0.5 34V4L0.504883 3.82031C0.598422 1.97083 2.12727 0.5 4 0.5Z" stroke="#38AEE0" stroke-linecap="round"/>
<path d="M25.134 24V14.662H28.13C29.1753 14.662 29.9453 14.8953 30.44 15.362C30.9347 15.8287 31.182 16.4447 31.182 17.21C31.182 17.6207 31.1213 17.98 31 18.288C30.888 18.5867 30.7247 18.8433 30.51 19.058C30.3047 19.2727 30.0573 19.4453 29.768 19.576C29.488 19.6973 29.1847 19.786 28.858 19.842L31.406 24H30.132L27.612 19.912H26.254V24H25.134ZM26.254 18.946H28.06C29.3573 18.946 30.006 18.3673 30.006 17.21C30.006 16.678 29.8473 16.2813 29.53 16.02C29.2127 15.7587 28.7553 15.628 28.158 15.628H26.254V18.946ZM33.1455 20.598C33.1455 21.4473 33.3368 22.11 33.7195 22.586C34.1022 23.0527 34.6575 23.286 35.3855 23.286C35.8055 23.286 36.1602 23.1833 36.4495 22.978C36.7388 22.7727 36.9722 22.5207 37.1495 22.222L37.8635 22.698C37.6208 23.118 37.3035 23.468 36.9115 23.748C36.5288 24.0187 36.0108 24.154 35.3575 24.154C34.8535 24.154 34.4008 24.0793 33.9995 23.93C33.5982 23.7713 33.2528 23.5473 32.9635 23.258C32.6835 22.9593 32.4642 22.5907 32.3055 22.152C32.1562 21.7133 32.0815 21.2047 32.0815 20.626C32.0815 20.094 32.1515 19.618 32.2915 19.198C32.4408 18.7687 32.6415 18.4047 32.8935 18.106C33.1548 17.798 33.4675 17.5647 33.8315 17.406C34.2048 17.238 34.6155 17.154 35.0635 17.154C35.5582 17.154 35.9875 17.238 36.3515 17.406C36.7248 17.574 37.0328 17.812 37.2755 18.12C37.5182 18.4187 37.7002 18.7827 37.8215 19.212C37.9428 19.632 38.0035 20.094 38.0035 20.598H33.1455ZM36.7855 19.744C36.7762 19.4547 36.7202 19.2027 36.6175 18.988C36.5148 18.764 36.3842 18.582 36.2255 18.442C36.0668 18.2927 35.8848 18.1853 35.6795 18.12C35.4742 18.0453 35.2688 18.008 35.0635 18.008C34.6155 18.008 34.2282 18.1433 33.9015 18.414C33.5842 18.6753 33.3648 19.1187 33.2435 19.744H36.7855ZM39.8769 22.348C40.0355 22.6467 40.2362 22.88 40.4789 23.048C40.7309 23.2067 41.0669 23.286 41.4869 23.286C42.4015 23.286 42.8589 22.9593 42.8589 22.306C42.8589 22.11 42.8262 21.9467 42.7609 21.816C42.7049 21.676 42.6069 21.55 42.4669 21.438C42.3362 21.326 42.1635 21.2233 41.9489 21.13C41.7342 21.0367 41.4729 20.934 41.1649 20.822C40.8289 20.71 40.5442 20.5933 40.3109 20.472C40.0775 20.3413 39.8862 20.2013 39.7369 20.052C39.5875 19.9027 39.4755 19.7347 39.4009 19.548C39.3355 19.352 39.3029 19.1327 39.3029 18.89C39.3029 18.3487 39.4989 17.924 39.8909 17.616C40.2922 17.308 40.8195 17.154 41.4729 17.154C42.0142 17.154 42.4669 17.2473 42.8309 17.434C43.1949 17.6113 43.5029 17.868 43.7549 18.204L42.9989 18.806C42.8122 18.582 42.5929 18.3953 42.3409 18.246C42.0889 18.0967 41.8042 18.022 41.4869 18.022C41.0949 18.022 40.8009 18.1013 40.6049 18.26C40.4182 18.4093 40.3249 18.596 40.3249 18.82C40.3249 18.96 40.3482 19.086 40.3949 19.198C40.4509 19.3007 40.5442 19.3987 40.6749 19.492C40.8055 19.576 40.9735 19.6647 41.1789 19.758C41.3935 19.842 41.6642 19.94 41.9909 20.052C42.6069 20.2667 43.0735 20.5373 43.3909 20.864C43.7082 21.1907 43.8669 21.6247 43.8669 22.166C43.8669 22.4833 43.8062 22.768 43.6849 23.02C43.5635 23.2627 43.3955 23.468 43.1809 23.636C42.9755 23.804 42.7282 23.93 42.4389 24.014C42.1495 24.1073 41.8322 24.154 41.4869 24.154C40.8242 24.154 40.3062 24.0327 39.9329 23.79C39.5595 23.5473 39.2609 23.2393 39.0369 22.866L39.8769 22.348ZM46.7944 18.204V22.474C46.7944 22.8007 46.8551 23.02 46.9764 23.132C47.1071 23.2347 47.2704 23.286 47.4664 23.286C47.6437 23.286 47.8117 23.2487 47.9704 23.174C48.1291 23.0993 48.2737 23.0107 48.4044 22.908L48.8244 23.636C48.6097 23.7947 48.3951 23.9207 48.1804 24.014C47.9751 24.1073 47.6811 24.154 47.2984 24.154C46.7944 24.154 46.4071 24.028 46.1364 23.776C45.8657 23.5147 45.7304 23.118 45.7304 22.586V18.204H44.5824V17.322H45.7304V15.6L46.8084 15.404V17.322H48.6284L48.4744 18.204H46.7944ZM53.8596 24L53.8036 23.426C53.5703 23.6593 53.2996 23.8413 52.9916 23.972C52.6929 24.0933 52.3616 24.154 51.9976 24.154C51.7083 24.154 51.4236 24.1073 51.1436 24.014C50.8729 23.93 50.6303 23.804 50.4156 23.636C50.2103 23.4587 50.0423 23.2393 49.9116 22.978C49.7809 22.7167 49.7156 22.4133 49.7156 22.068C49.7156 21.592 49.8416 21.2 50.0936 20.892C50.3549 20.5747 50.6816 20.3273 51.0736 20.15C51.4656 19.9727 51.8996 19.8467 52.3756 19.772C52.8516 19.6973 53.3136 19.66 53.7616 19.66V19.576C53.7616 19.016 53.6403 18.6147 53.3976 18.372C53.1643 18.1293 52.8236 18.008 52.3756 18.008C52.0676 18.008 51.7829 18.078 51.5216 18.218C51.2696 18.3487 51.0549 18.526 50.8776 18.75L50.1216 18.218C50.3923 17.854 50.7096 17.588 51.0736 17.42C51.4469 17.2427 51.9136 17.154 52.4736 17.154C53.2203 17.154 53.7989 17.3453 54.2096 17.728C54.6296 18.1107 54.8396 18.75 54.8396 19.646V24H53.8596ZM53.7616 20.514C53.4536 20.5233 53.1269 20.5467 52.7816 20.584C52.4363 20.6213 52.1143 20.696 51.8156 20.808C51.5263 20.9107 51.2836 21.0647 51.0876 21.27C50.9009 21.4753 50.8076 21.746 50.8076 22.082C50.8076 22.2967 50.8496 22.4787 50.9336 22.628C51.0176 22.7773 51.1203 22.9033 51.2416 23.006C51.3723 23.0993 51.5123 23.1693 51.6616 23.216C51.8203 23.2533 51.9743 23.272 52.1236 23.272C52.4503 23.272 52.7489 23.2067 53.0196 23.076C53.2996 22.936 53.5469 22.7727 53.7616 22.586V20.514ZM56.7258 24V17.406L57.6918 17.238L57.7898 17.91C57.9671 17.7233 58.1958 17.5507 58.4758 17.392C58.7558 17.2333 59.0404 17.154 59.3298 17.154C59.5351 17.154 59.7218 17.168 59.8898 17.196C60.0671 17.224 60.2024 17.252 60.2958 17.28L60.0998 18.274C59.8478 18.1713 59.5538 18.12 59.2178 18.12C58.9471 18.12 58.6858 18.1947 58.4338 18.344C58.1911 18.4933 57.9811 18.6473 57.8038 18.806V24H56.7258ZM63.0229 18.204V22.474C63.0229 22.8007 63.0836 23.02 63.2049 23.132C63.3356 23.2347 63.4989 23.286 63.6949 23.286C63.8723 23.286 64.0403 23.2487 64.1989 23.174C64.3576 23.0993 64.5023 23.0107 64.6329 22.908L65.0529 23.636C64.8383 23.7947 64.6236 23.9207 64.4089 24.014C64.2036 24.1073 63.9096 24.154 63.5269 24.154C63.0229 24.154 62.6356 24.028 62.3649 23.776C62.0943 23.5147 61.9589 23.118 61.9589 22.586V18.204H60.8109V17.322H61.9589V15.6L63.0369 15.404V17.322H64.8569L64.7029 18.204H63.0229Z" fill="#38AEE0"/>
</svg>
