<svg width="90" height="38" viewBox="0 0 90 38" fill="none" xmlns="http://www.w3.org/2000/svg">
<mask id="path-1-inside-1_124_27130" fill="white">
<path d="M0 4C0 1.79086 1.79086 0 4 0H86C88.2091 0 90 1.79086 90 4V34C90 36.2091 88.2091 38 86 38H4C1.79086 38 0 36.2091 0 34V4Z"/>
</mask>
<path d="M0 4C0 1.79086 1.79086 0 4 0H86C88.2091 0 90 1.79086 90 4V34C90 36.2091 88.2091 38 86 38H4C1.79086 38 0 36.2091 0 34V4Z" fill="white"/>
<path d="M4 0V1H86V0V-1H4V0ZM90 4H89V34H90H91V4H90ZM86 38V37H4V38V39H86V38ZM0 34H1V4H0H-1V34H0ZM4 38V37C2.34315 37 1 35.6569 1 34H0H-1C-1 36.7614 1.23858 39 4 39V38ZM90 34H89C89 35.6569 87.6569 37 86 37V38V39C88.7614 39 91 36.7614 91 34H90ZM86 0V1C87.6569 1 89 2.34315 89 4H90H91C91 1.23858 88.7614 -1 86 -1V0ZM4 0V-1C1.23858 -1 -1 1.23858 -1 4H0H1C1 2.34315 2.34315 1 4 1V0Z" fill="#38AEE0" mask="url(#path-1-inside-1_124_27130)"/>
<path d="M16.302 21.998C16.5727 22.39 16.9273 22.684 17.366 22.88C17.8047 23.076 18.2527 23.174 18.71 23.174C18.9527 23.174 19.1813 23.146 19.396 23.09C19.62 23.0247 19.8113 22.9313 19.97 22.81C20.138 22.6793 20.2687 22.5113 20.362 22.306C20.4647 22.1007 20.516 21.858 20.516 21.578C20.516 21.3167 20.4553 21.088 20.334 20.892C20.2127 20.6867 20.0493 20.5047 19.844 20.346C19.6387 20.1873 19.4053 20.0473 19.144 19.926C18.8827 19.7953 18.612 19.6693 18.332 19.548C18.0147 19.408 17.6973 19.268 17.38 19.128C17.072 18.9787 16.7967 18.8013 16.554 18.596C16.3113 18.3907 16.1107 18.1527 15.952 17.882C15.8027 17.6113 15.728 17.28 15.728 16.888C15.728 16.4867 15.8073 16.1367 15.966 15.838C16.134 15.53 16.3533 15.278 16.624 15.082C16.904 14.8767 17.2167 14.7273 17.562 14.634C17.9167 14.5313 18.2853 14.48 18.668 14.48C19.256 14.48 19.8207 14.5967 20.362 14.83C20.9033 15.0633 21.342 15.432 21.678 15.936L20.824 16.608C20.5813 16.272 20.2687 16.0013 19.886 15.796C19.5127 15.5813 19.102 15.474 18.654 15.474C18.094 15.474 17.6647 15.5953 17.366 15.838C17.0673 16.0807 16.918 16.412 16.918 16.832C16.918 17.0653 16.9693 17.266 17.072 17.434C17.184 17.5927 17.3333 17.7373 17.52 17.868C17.716 17.9987 17.9493 18.1293 18.22 18.26C18.4907 18.3813 18.794 18.5167 19.13 18.666C19.4473 18.8153 19.76 18.9693 20.068 19.128C20.376 19.2867 20.6513 19.4733 20.894 19.688C21.1367 19.8933 21.3327 20.1407 21.482 20.43C21.6313 20.7193 21.706 21.0647 21.706 21.466C21.706 21.942 21.622 22.3527 21.454 22.698C21.2953 23.0433 21.076 23.328 20.796 23.552C20.516 23.776 20.1893 23.9393 19.816 24.042C19.452 24.1447 19.06 24.196 18.64 24.196C18.3227 24.196 18.0053 24.1587 17.688 24.084C17.38 24.0187 17.0813 23.9207 16.792 23.79C16.512 23.6593 16.2507 23.5007 16.008 23.314C15.7747 23.118 15.5787 22.8987 15.42 22.656L16.302 21.998ZM23.9268 20.598C23.9268 21.4473 24.1181 22.11 24.5008 22.586C24.8834 23.0527 25.4388 23.286 26.1668 23.286C26.5868 23.286 26.9414 23.1833 27.2308 22.978C27.5201 22.7727 27.7534 22.5207 27.9308 22.222L28.6448 22.698C28.4021 23.118 28.0848 23.468 27.6928 23.748C27.3101 24.0187 26.7921 24.154 26.1388 24.154C25.6348 24.154 25.1821 24.0793 24.7808 23.93C24.3794 23.7713 24.0341 23.5473 23.7448 23.258C23.4648 22.9593 23.2454 22.5907 23.0868 22.152C22.9374 21.7133 22.8628 21.2047 22.8628 20.626C22.8628 20.094 22.9328 19.618 23.0728 19.198C23.2221 18.7687 23.4228 18.4047 23.6748 18.106C23.9361 17.798 24.2488 17.5647 24.6128 17.406C24.9861 17.238 25.3968 17.154 25.8448 17.154C26.3394 17.154 26.7688 17.238 27.1328 17.406C27.5061 17.574 27.8141 17.812 28.0568 18.12C28.2994 18.4187 28.4814 18.7827 28.6028 19.212C28.7241 19.632 28.7848 20.094 28.7848 20.598H23.9268ZM27.5668 19.744C27.5574 19.4547 27.5014 19.2027 27.3988 18.988C27.2961 18.764 27.1654 18.582 27.0068 18.442C26.8481 18.2927 26.6661 18.1853 26.4608 18.12C26.2554 18.0453 26.0501 18.008 25.8448 18.008C25.3968 18.008 25.0094 18.1433 24.6828 18.414C24.3654 18.6753 24.1461 19.1187 24.0248 19.744H27.5668ZM31.2741 17.238L31.3581 17.854C31.6288 17.6487 31.9461 17.4807 32.3101 17.35C32.6835 17.2193 33.0708 17.154 33.4721 17.154C34.3868 17.154 35.0308 17.3827 35.4041 17.84C35.7868 18.288 35.9781 18.9553 35.9781 19.842V24H34.9001V19.814C34.9001 19.254 34.7741 18.8153 34.5221 18.498C34.2701 18.1807 33.8595 18.022 33.2901 18.022C32.9355 18.022 32.5855 18.1013 32.2401 18.26C31.9041 18.4093 31.6148 18.5773 31.3721 18.764V24H30.2941V17.406L31.2741 17.238ZM42.3203 24L42.2363 23.454C41.9937 23.706 41.7277 23.888 41.4383 24C41.1583 24.1027 40.8503 24.154 40.5143 24.154C40.0383 24.154 39.6137 24.0653 39.2403 23.888C38.8763 23.7013 38.5683 23.4493 38.3163 23.132C38.0643 22.8147 37.873 22.4413 37.7423 22.012C37.6117 21.5733 37.5463 21.102 37.5463 20.598C37.5463 20.1687 37.6117 19.7487 37.7423 19.338C37.8823 18.918 38.083 18.5493 38.3443 18.232C38.615 17.9053 38.951 17.644 39.3523 17.448C39.7537 17.252 40.2203 17.154 40.7523 17.154C41.0883 17.154 41.3777 17.182 41.6203 17.238C41.863 17.2847 42.0683 17.3407 42.2363 17.406V14.662L43.3143 14.48V24H42.3203ZM42.2363 18.344C42.1803 18.3067 42.101 18.2693 41.9983 18.232C41.905 18.1947 41.7977 18.162 41.6763 18.134C41.555 18.0967 41.429 18.0687 41.2983 18.05C41.1677 18.0313 41.0417 18.022 40.9203 18.022C40.5283 18.022 40.1877 18.0967 39.8983 18.246C39.609 18.3953 39.3663 18.596 39.1703 18.848C38.9837 19.0907 38.8437 19.3707 38.7503 19.688C38.657 20.0053 38.6103 20.3273 38.6103 20.654C38.6103 21.0273 38.6523 21.3773 38.7363 21.704C38.8203 22.0213 38.9463 22.2967 39.1143 22.53C39.2917 22.7633 39.5063 22.95 39.7583 23.09C40.0197 23.2207 40.3277 23.286 40.6823 23.286C40.9623 23.286 41.2377 23.23 41.5083 23.118C41.779 22.9967 42.0217 22.8007 42.2363 22.53V18.344ZM48.1809 24V14.662H50.9669C51.9282 14.662 52.6609 14.8767 53.1649 15.306C53.6689 15.7353 53.9209 16.314 53.9209 17.042C53.9209 17.6393 53.7435 18.1013 53.3889 18.428C53.0342 18.7453 52.5769 18.9507 52.0169 19.044C52.2969 19.072 52.5769 19.1327 52.8569 19.226C53.1369 19.31 53.3889 19.4453 53.6129 19.632C53.8462 19.8187 54.0329 20.0567 54.1729 20.346C54.3222 20.626 54.3969 20.976 54.3969 21.396C54.3969 21.7973 54.3222 22.1613 54.1729 22.488C54.0329 22.8053 53.8369 23.076 53.5849 23.3C53.3329 23.524 53.0342 23.6967 52.6889 23.818C52.3435 23.9393 51.9655 24 51.5549 24H48.1809ZM49.3009 18.624H50.8689C51.4569 18.624 51.9142 18.4887 52.2409 18.218C52.5769 17.938 52.7449 17.546 52.7449 17.042C52.7449 16.5847 52.5955 16.2347 52.2969 15.992C52.0075 15.7493 51.5782 15.628 51.0089 15.628H49.3009V18.624ZM49.3009 23.034H51.4569C51.9889 23.034 52.4135 22.9033 52.7309 22.642C53.0482 22.3713 53.2069 21.956 53.2069 21.396C53.2069 20.7987 53.0109 20.3507 52.6189 20.052C52.2362 19.744 51.6669 19.59 50.9109 19.59H49.3009V23.034ZM59.4885 24L59.4325 23.426C59.1992 23.6593 58.9285 23.8413 58.6205 23.972C58.3218 24.0933 57.9905 24.154 57.6265 24.154C57.3372 24.154 57.0525 24.1073 56.7725 24.014C56.5018 23.93 56.2592 23.804 56.0445 23.636C55.8392 23.4587 55.6712 23.2393 55.5405 22.978C55.4098 22.7167 55.3445 22.4133 55.3445 22.068C55.3445 21.592 55.4705 21.2 55.7225 20.892C55.9838 20.5747 56.3105 20.3273 56.7025 20.15C57.0945 19.9727 57.5285 19.8467 58.0045 19.772C58.4805 19.6973 58.9425 19.66 59.3905 19.66V19.576C59.3905 19.016 59.2692 18.6147 59.0265 18.372C58.7932 18.1293 58.4525 18.008 58.0045 18.008C57.6965 18.008 57.4118 18.078 57.1505 18.218C56.8985 18.3487 56.6838 18.526 56.5065 18.75L55.7505 18.218C56.0212 17.854 56.3385 17.588 56.7025 17.42C57.0758 17.2427 57.5425 17.154 58.1025 17.154C58.8492 17.154 59.4278 17.3453 59.8385 17.728C60.2585 18.1107 60.4685 18.75 60.4685 19.646V24H59.4885ZM59.3905 20.514C59.0825 20.5233 58.7558 20.5467 58.4105 20.584C58.0652 20.6213 57.7432 20.696 57.4445 20.808C57.1552 20.9107 56.9125 21.0647 56.7165 21.27C56.5298 21.4753 56.4365 21.746 56.4365 22.082C56.4365 22.2967 56.4785 22.4787 56.5625 22.628C56.6465 22.7773 56.7492 22.9033 56.8705 23.006C57.0012 23.0993 57.1412 23.1693 57.2905 23.216C57.4492 23.2533 57.6032 23.272 57.7525 23.272C58.0792 23.272 58.3778 23.2067 58.6485 23.076C58.9285 22.936 59.1758 22.7727 59.3905 22.586V20.514ZM67.6607 22.572C67.3993 23.1133 67.04 23.5147 66.5827 23.776C66.1347 24.028 65.6587 24.154 65.1547 24.154C64.7627 24.154 64.3753 24.084 63.9927 23.944C63.6193 23.804 63.288 23.5893 62.9987 23.3C62.7093 23.0107 62.476 22.6513 62.2987 22.222C62.1213 21.7833 62.0327 21.27 62.0327 20.682C62.0327 20.0567 62.1213 19.52 62.2987 19.072C62.476 18.624 62.7093 18.26 62.9987 17.98C63.288 17.6907 63.6147 17.4807 63.9787 17.35C64.3427 17.2193 64.7067 17.154 65.0707 17.154C65.444 17.154 65.7707 17.21 66.0507 17.322C66.34 17.434 66.5827 17.574 66.7787 17.742C66.984 17.91 67.1473 18.0873 67.2687 18.274C67.3993 18.4607 67.4927 18.6287 67.5487 18.778L66.7507 19.282C66.5547 18.834 66.3073 18.512 66.0087 18.316C65.71 18.12 65.3973 18.022 65.0707 18.022C64.8187 18.022 64.576 18.0827 64.3427 18.204C64.1093 18.316 63.8993 18.484 63.7127 18.708C63.526 18.932 63.3767 19.2073 63.2647 19.534C63.1527 19.8607 63.0967 20.234 63.0967 20.654C63.0967 21.074 63.1527 21.4473 63.2647 21.774C63.3767 22.1007 63.526 22.376 63.7127 22.6C63.9087 22.824 64.1327 22.9967 64.3847 23.118C64.646 23.23 64.9213 23.286 65.2107 23.286C65.5373 23.286 65.85 23.1927 66.1487 23.006C66.4567 22.8193 66.7087 22.516 66.9047 22.096L67.6607 22.572ZM68.9855 24V14.662L70.0635 14.48V19.856L72.7655 17.322H74.1375L71.8555 19.478L74.7255 24H73.4795L71.0575 20.22L70.0635 21.13V24H68.9855Z" fill="#38AEE0"/>
</svg>