<svg width="77" height="20" viewBox="0 0 77 20" fill="none" xmlns="http://www.w3.org/2000/svg">
<path d="M10.7598 5.42148V12.0815C10.7598 12.5015 10.4198 12.8415 9.99984 12.8415C9.57984 12.8415 9.25984 12.5015 9.25984 12.0815V5.42148L6.73984 7.64149C6.43984 7.92149 5.95984 7.90149 5.69984 7.58149C5.41984 7.28149 5.43984 6.80149 5.75984 6.52149L9.49984 3.20148C9.77984 2.94148 10.1998 2.94148 10.4998 3.18148C10.4998 3.20148 10.4998 3.20148 10.4998 3.20148L14.2398 6.52149C14.5598 6.80149 14.5798 7.28149 14.3198 7.58149C14.0398 7.90149 13.5598 7.92149 13.2598 7.64149L10.7598 5.42148ZM15.1598 14.0815C15.1598 13.6615 15.4998 13.3415 15.9198 13.3415C16.3398 13.3415 16.6598 13.6615 16.6598 14.0815V15.9215C16.6598 16.3215 16.3398 16.6615 15.9198 16.6615H4.07984C3.67984 16.6615 3.33984 16.3215 3.33984 15.9215V14.0815C3.33984 13.6615 3.67984 13.3415 4.07984 13.3415C4.49984 13.3415 4.83984 13.6615 4.83984 14.0815V15.1615H15.1598V14.0815Z" fill="#38AEE0"/>
<path d="M35.9011 4.81818H37.7456V11.4702C37.7456 12.1993 37.5732 12.8407 37.2285 13.3942C36.8871 13.9477 36.4065 14.3802 35.7868 14.6918C35.167 15 34.4428 15.1541 33.6142 15.1541C32.7823 15.1541 32.0564 15 31.4366 14.6918C30.8168 14.3802 30.3362 13.9477 29.9949 13.3942C29.6535 12.8407 29.4828 12.1993 29.4828 11.4702V4.81818H31.3272V11.3161C31.3272 11.7403 31.42 12.1181 31.6056 12.4496C31.7946 12.781 32.0597 13.0412 32.4011 13.2301C32.7425 13.4157 33.1468 13.5085 33.6142 13.5085C34.0815 13.5085 34.4859 13.4157 34.8272 13.2301C35.1719 13.0412 35.4371 12.781 35.6227 12.4496C35.8083 12.1181 35.9011 11.7403 35.9011 11.3161V4.81818ZM39.6708 17.8636V7.36364H41.4407V8.62642H41.5451C41.6379 8.44081 41.7688 8.24361 41.9379 8.0348C42.1069 7.82268 42.3356 7.64205 42.6239 7.4929C42.9123 7.34044 43.2802 7.2642 43.7276 7.2642C44.3176 7.2642 44.8496 7.41501 45.3235 7.71662C45.8008 8.01491 46.1786 8.45739 46.457 9.04403C46.7388 9.62737 46.8796 10.3433 46.8796 11.1918C46.8796 12.0303 46.7421 12.7429 46.467 13.3295C46.1919 13.9162 45.8174 14.3636 45.3434 14.6719C44.8694 14.9801 44.3325 15.1342 43.7326 15.1342C43.2951 15.1342 42.9322 15.0613 42.6438 14.9155C42.3555 14.7696 42.1235 14.594 41.9478 14.3885C41.7754 14.1797 41.6412 13.9825 41.5451 13.7969H41.4705V17.8636H39.6708ZM41.4357 11.1818C41.4357 11.6757 41.5053 12.1082 41.6445 12.4794C41.7871 12.8506 41.9909 13.1406 42.256 13.3494C42.5245 13.5549 42.8493 13.6577 43.2305 13.6577C43.6282 13.6577 43.9613 13.5516 44.2298 13.3395C44.4982 13.1241 44.7004 12.8307 44.8363 12.4595C44.9755 12.085 45.0451 11.6591 45.0451 11.1818C45.0451 10.7079 44.9772 10.2869 44.8413 9.91903C44.7054 9.55114 44.5032 9.26278 44.2347 9.05398C43.9663 8.84517 43.6315 8.74077 43.2305 8.74077C42.846 8.74077 42.5195 8.84186 42.2511 9.04403C41.9826 9.24621 41.7788 9.52959 41.6396 9.89418C41.5037 10.2588 41.4357 10.688 41.4357 11.1818ZM50.2205 4.81818V15H48.4208V4.81818H50.2205ZM55.4022 15.1491C54.6564 15.1491 54.0101 14.9851 53.4632 14.657C52.9164 14.3288 52.4921 13.8698 52.1905 13.2798C51.8922 12.6899 51.7431 12.0005 51.7431 11.2116C51.7431 10.4228 51.8922 9.73177 52.1905 9.13849C52.4921 8.54522 52.9164 8.08452 53.4632 7.75639C54.0101 7.42827 54.6564 7.2642 55.4022 7.2642C56.1479 7.2642 56.7942 7.42827 57.3411 7.75639C57.888 8.08452 58.3105 8.54522 58.6088 9.13849C58.9105 9.73177 59.0613 10.4228 59.0613 11.2116C59.0613 12.0005 58.9105 12.6899 58.6088 13.2798C58.3105 13.8698 57.888 14.3288 57.3411 14.657C56.7942 14.9851 56.1479 15.1491 55.4022 15.1491ZM55.4121 13.7074C55.8165 13.7074 56.1545 13.5964 56.4263 13.3743C56.6981 13.1489 56.9003 12.8473 57.0328 12.4695C57.1687 12.0916 57.2367 11.6707 57.2367 11.2067C57.2367 10.7393 57.1687 10.3168 57.0328 9.93892C56.9003 9.55777 56.6981 9.2545 56.4263 9.02912C56.1545 8.80374 55.8165 8.69105 55.4121 8.69105C54.9978 8.69105 54.6531 8.80374 54.378 9.02912C54.1062 9.2545 53.9024 9.55777 53.7665 9.93892C53.6339 10.3168 53.5676 10.7393 53.5676 11.2067C53.5676 11.6707 53.6339 12.0916 53.7665 12.4695C53.9024 12.8473 54.1062 13.1489 54.378 13.3743C54.6531 13.5964 54.9978 13.7074 55.4121 13.7074ZM62.7862 15.1541C62.3023 15.1541 61.8665 15.0679 61.4787 14.8956C61.0942 14.7199 60.7893 14.4614 60.5639 14.12C60.3419 13.7786 60.2308 13.3577 60.2308 12.8572C60.2308 12.4264 60.3104 12.0701 60.4695 11.7884C60.6286 11.5066 60.8456 11.2812 61.1207 11.1122C61.3958 10.9432 61.7057 10.8156 62.0504 10.7294C62.3984 10.6399 62.758 10.5753 63.1293 10.5355C63.5767 10.4891 63.9396 10.4477 64.218 10.4112C64.4964 10.3714 64.6986 10.3118 64.8246 10.2322C64.9538 10.1494 65.0185 10.0218 65.0185 9.84943V9.8196C65.0185 9.44508 64.9074 9.15507 64.6854 8.94957C64.4633 8.74408 64.1435 8.64134 63.7259 8.64134C63.285 8.64134 62.9354 8.73745 62.6768 8.92969C62.4216 9.12192 62.2493 9.34896 62.1598 9.6108L60.4794 9.37216C60.612 8.90814 60.8307 8.52036 61.1357 8.20881C61.4406 7.89394 61.8134 7.65862 62.2543 7.50284C62.6951 7.34375 63.1823 7.2642 63.7159 7.2642C64.0838 7.2642 64.45 7.30729 64.8146 7.39347C65.1792 7.47964 65.5123 7.62216 65.8139 7.82102C66.1155 8.01657 66.3575 8.28338 66.5398 8.62145C66.7254 8.95952 66.8182 9.3821 66.8182 9.8892V15H65.0881V13.951H65.0284C64.919 14.1631 64.7649 14.362 64.5661 14.5476C64.3705 14.7299 64.1236 14.8774 63.8253 14.9901C63.5303 15.0994 63.1839 15.1541 62.7862 15.1541ZM63.2536 13.8317C63.6148 13.8317 63.928 13.7604 64.1932 13.6179C64.4583 13.4721 64.6622 13.2798 64.8047 13.0412C64.9505 12.8026 65.0234 12.5424 65.0234 12.2607V11.3608C64.9671 11.4072 64.871 11.4503 64.7351 11.4901C64.6025 11.5298 64.4534 11.5646 64.2876 11.5945C64.1219 11.6243 63.9579 11.6508 63.7955 11.674C63.633 11.6972 63.4922 11.7171 63.3729 11.7337C63.1044 11.7701 62.8641 11.8298 62.652 11.9126C62.4399 11.9955 62.2725 12.1115 62.1499 12.2607C62.0272 12.4065 61.9659 12.5954 61.9659 12.8274C61.9659 13.1589 62.0869 13.4091 62.3288 13.5781C62.5708 13.7472 62.879 13.8317 63.2536 13.8317ZM71.4616 15.1342C70.8617 15.1342 70.3248 14.9801 69.8509 14.6719C69.3769 14.3636 69.0024 13.9162 68.7273 13.3295C68.4522 12.7429 68.3146 12.0303 68.3146 11.1918C68.3146 10.3433 68.4538 9.62737 68.7322 9.04403C69.014 8.45739 69.3935 8.01491 69.8707 7.71662C70.348 7.41501 70.88 7.2642 71.4666 7.2642C71.9141 7.2642 72.282 7.34044 72.5703 7.4929C72.8587 7.64205 73.0874 7.82268 73.2564 8.0348C73.4254 8.24361 73.5563 8.44081 73.6491 8.62642H73.7237V4.81818H75.5284V15H73.7585V13.7969H73.6491C73.5563 13.9825 73.4221 14.1797 73.2464 14.3885C73.0708 14.594 72.8388 14.7696 72.5504 14.9155C72.2621 15.0613 71.8991 15.1342 71.4616 15.1342ZM71.9638 13.6577C72.3449 13.6577 72.6697 13.5549 72.9382 13.3494C73.2067 13.1406 73.4105 12.8506 73.5497 12.4794C73.6889 12.1082 73.7585 11.6757 73.7585 11.1818C73.7585 10.688 73.6889 10.2588 73.5497 9.89418C73.4138 9.52959 73.2116 9.24621 72.9432 9.04403C72.678 8.84186 72.3516 8.74077 71.9638 8.74077C71.5627 8.74077 71.228 8.84517 70.9595 9.05398C70.6911 9.26278 70.4889 9.55114 70.353 9.91903C70.2171 10.2869 70.1491 10.7079 70.1491 11.1818C70.1491 11.6591 70.2171 12.085 70.353 12.4595C70.4922 12.8307 70.696 13.1241 70.9645 13.3395C71.2363 13.5516 71.5694 13.6577 71.9638 13.6577Z" fill="#38AEE0"/>
</svg>