<svg width="28" height="28" viewBox="0 0 28 28" fill="none" xmlns="http://www.w3.org/2000/svg">
<path fill-rule="evenodd" clip-rule="evenodd" d="M8.16667 3.5013C6.878 3.5013 5.83333 4.54597 5.83333 5.83464V22.168C5.83333 23.4566 6.878 24.5013 8.16667 24.5013H10.5C11.1443 24.5013 11.6667 25.0236 11.6667 25.668C11.6667 26.3123 11.1443 26.8346 10.5 26.8346H8.16667C5.58934 26.8346 3.5 24.7453 3.5 22.168V5.83464C3.5 3.25731 5.58934 1.16797 8.16667 1.16797H15.8607C17.2457 1.16797 18.5591 1.78314 19.4457 2.84711L23.4184 7.61428C24.1173 8.45295 24.5 9.51011 24.5 10.6018V22.168C24.5 24.7453 22.4107 26.8346 19.8333 26.8346H17.5C16.8557 26.8346 16.3333 26.3123 16.3333 25.668C16.3333 25.0236 16.8557 24.5013 17.5 24.5013H19.8333C21.122 24.5013 22.1667 23.4566 22.1667 22.168V11.668H19.8333C17.256 11.668 15.1667 9.57863 15.1667 7.0013V3.5013H8.16667ZM21.6258 9.10805C21.6862 9.18048 21.7418 9.25616 21.7926 9.33464H19.8333C18.5447 9.33464 17.5 8.28997 17.5 7.0013V4.17417C17.5535 4.22697 17.6046 4.28257 17.6532 4.34087L21.6258 9.10805Z" fill="#CC400C"/>
<path d="M16.5251 23.8177L14.7751 25.3733C14.3331 25.7662 13.6669 25.7662 13.2249 25.3733L11.4749 23.8177C10.9933 23.3897 10.95 22.6522 11.378 22.1707C11.7525 21.7494 12.3637 21.6634 12.8333 21.9351V16.3346C12.8333 15.6903 13.3557 15.168 14 15.168C14.6443 15.168 15.1667 15.6903 15.1667 16.3346V21.9351C15.6362 21.6634 16.2475 21.7494 16.622 22.1707C17.05 22.6522 17.0067 23.3897 16.5251 23.8177Z" fill="#CC400C"/>
</svg>
