<svg width="394" height="74" viewBox="0 0 394 74" fill="none" xmlns="http://www.w3.org/2000/svg">
<rect x="0.75" y="10.75" width="373.5" height="62.5" rx="7.25" fill="white"/>
<rect x="0.75" y="10.75" width="373.5" height="62.5" rx="7.25" stroke="#C6C6C6" stroke-width="1.5" stroke-dasharray="4 4"/>
<path d="M50.25 14L58.75 22V60C58.75 61.1046 57.8546 62 56.75 62H18.25C17.1454 62 16.25 61.1046 16.25 60V16C16.25 14.8954 17.1454 14 18.25 14H50.25Z" fill="#E4E7EC"/>
<path d="M58.75 22H50.25V14L58.75 22Z" fill="#98A2B3"/>
<rect x="14.125" y="34" width="46.75" height="20" rx="2" fill="#CC400C"/>
<path d="M22.8276 49.82V38.1836H27.1913C28.0852 38.1836 28.8352 38.3503 29.4413 38.6836C30.0511 39.0169 30.5113 39.4753 30.822 40.0586C31.1363 40.6381 31.2935 41.2972 31.2935 42.0359C31.2935 42.7821 31.1363 43.445 30.822 44.0245C30.5076 44.604 30.0435 45.0605 29.4299 45.3938C28.8163 45.7234 28.0606 45.8881 27.1629 45.8881H24.2708V44.1552H26.8788C27.4015 44.1552 27.8295 44.0643 28.1629 43.8825C28.4962 43.7006 28.7424 43.4506 28.9015 43.1325C29.0644 42.8143 29.1458 42.4487 29.1458 42.0359C29.1458 41.623 29.0644 41.2594 28.9015 40.945C28.7424 40.6306 28.4943 40.3862 28.1572 40.212C27.8238 40.034 27.3939 39.945 26.8674 39.945H24.9356V49.82H22.8276Z" fill="white"/>
<path d="M37.0677 49.82H33.1245V38.1836H37.1472C38.3025 38.1836 39.295 38.4165 40.1245 38.8825C40.9578 39.3446 41.598 40.0094 42.045 40.8768C42.4919 41.7442 42.7154 42.7821 42.7154 43.9904C42.7154 45.2025 42.49 46.2442 42.0393 47.1154C41.5923 47.9866 40.9465 48.6552 40.1018 49.1211C39.2609 49.587 38.2495 49.82 37.0677 49.82ZM35.2325 47.9961H36.9654C37.776 47.9961 38.4522 47.8484 38.9938 47.5529C39.5355 47.2537 39.9427 46.8086 40.2154 46.2177C40.4881 45.623 40.6245 44.8806 40.6245 43.9904C40.6245 43.1003 40.4881 42.3616 40.2154 41.7745C39.9427 41.1836 39.5393 40.7423 39.0052 40.4506C38.4749 40.1552 37.8158 40.0075 37.0279 40.0075H35.2325V47.9961Z" fill="white"/>
<path d="M44.7183 49.82V38.1836H52.1728V39.9506H46.8262V43.1097H51.6614V44.8768H46.8262V49.82H44.7183Z" fill="white"/>
<path d="M72.1903 35V25.662H75.5083C75.9936 25.662 76.437 25.7133 76.8383 25.816C77.2396 25.9187 77.585 26.0727 77.8743 26.278C78.1636 26.4833 78.3876 26.74 78.5463 27.048C78.7143 27.356 78.7983 27.7153 78.7983 28.126C78.7983 28.5833 78.6956 28.9613 78.4903 29.26C78.285 29.5493 77.9816 29.8153 77.5803 30.058C78.1123 30.254 78.537 30.5433 78.8543 30.926C79.1716 31.2993 79.3303 31.78 79.3303 32.368C79.3303 32.816 79.2463 33.2033 79.0783 33.53C78.9196 33.8567 78.6956 34.132 78.4063 34.356C78.117 34.5707 77.7763 34.734 77.3843 34.846C77.0016 34.9487 76.5863 35 76.1383 35H72.1903ZM74.0523 29.484H75.1023C75.6436 29.484 76.0776 29.4093 76.4043 29.26C76.7403 29.1013 76.9083 28.8073 76.9083 28.378C76.9083 28.1353 76.8616 27.9393 76.7683 27.79C76.675 27.6407 76.5443 27.5287 76.3763 27.454C76.2176 27.37 76.0263 27.3187 75.8023 27.3C75.5876 27.272 75.3543 27.258 75.1023 27.258H74.0523V29.484ZM74.0523 33.404H75.5083C75.7603 33.404 75.9983 33.39 76.2223 33.362C76.4556 33.334 76.6563 33.278 76.8243 33.194C77.0016 33.11 77.1416 32.9933 77.2443 32.844C77.3563 32.6853 77.4123 32.48 77.4123 32.228C77.4123 31.976 77.361 31.7707 77.2583 31.612C77.1556 31.4533 77.0156 31.332 76.8383 31.248C76.661 31.1547 76.4556 31.094 76.2223 31.066C75.9983 31.0287 75.7603 31.01 75.5083 31.01H74.0523V33.404ZM81.5046 27.482C81.1406 27.482 80.8652 27.3793 80.6786 27.174C80.5012 26.9687 80.4126 26.74 80.4126 26.488C80.4126 26.2453 80.5012 26.0213 80.6786 25.816C80.8652 25.6107 81.1406 25.508 81.5046 25.508C81.8686 25.508 82.1392 25.6107 82.3166 25.816C82.5032 26.0213 82.5966 26.2453 82.5966 26.488C82.5966 26.74 82.5032 26.9687 82.3166 27.174C82.1392 27.3793 81.8686 27.482 81.5046 27.482ZM80.5946 35V28.434L82.4146 28.154V35H80.5946ZM84.2313 35V28.42L85.8833 28.168L85.9813 28.84C86.2333 28.5693 86.4853 28.3827 86.7373 28.28C86.9986 28.168 87.2693 28.112 87.5493 28.112C87.708 28.112 87.876 28.1307 88.0533 28.168C88.2306 28.2053 88.4126 28.2567 88.5993 28.322L88.2773 29.904C88.0906 29.8293 87.9133 29.7733 87.7453 29.736C87.5866 29.6893 87.428 29.666 87.2693 29.666C87.008 29.666 86.77 29.7267 86.5553 29.848C86.35 29.9693 86.1866 30.1093 86.0653 30.268V35H84.2313ZM91.814 29.652V33.096C91.814 33.3107 91.8607 33.46 91.954 33.544C92.0567 33.6187 92.1547 33.656 92.248 33.656C92.4347 33.656 92.6167 33.6093 92.794 33.516C92.9714 33.4227 93.1254 33.3247 93.256 33.222L93.914 34.468C93.606 34.6733 93.284 34.8413 92.948 34.972C92.612 35.0933 92.248 35.154 91.856 35.154C91.6227 35.154 91.394 35.1213 91.17 35.056C90.946 34.9907 90.7454 34.888 90.568 34.748C90.4 34.608 90.26 34.426 90.148 34.202C90.0454 33.9687 89.994 33.6887 89.994 33.362V29.652H89V28.252H89.994V26.684L91.814 26.404V28.252H93.564L93.34 29.652H91.814ZM94.8543 35V25.746L96.6883 25.466V28.7C96.9123 28.532 97.1783 28.3873 97.4863 28.266C97.7943 28.1447 98.1723 28.084 98.6203 28.084C99.0683 28.084 99.451 28.154 99.7683 28.294C100.095 28.4247 100.356 28.616 100.552 28.868C100.758 29.12 100.907 29.428 101 29.792C101.103 30.1467 101.154 30.548 101.154 30.996V35H99.3203V31.122C99.3203 30.8793 99.3063 30.66 99.2783 30.464C99.2503 30.268 99.1943 30.1047 99.1103 29.974C99.0357 29.834 98.9237 29.7267 98.7743 29.652C98.625 29.5773 98.429 29.54 98.1863 29.54C97.9157 29.54 97.645 29.6053 97.3743 29.736C97.113 29.8667 96.8843 30.0207 96.6883 30.198V35H94.8543ZM113.003 33.138C112.583 33.8847 112.107 34.4167 111.575 34.734C111.043 35.042 110.394 35.196 109.629 35.196C109.013 35.196 108.448 35.0887 107.935 34.874C107.422 34.6593 106.978 34.3467 106.605 33.936C106.241 33.516 105.956 33.0073 105.751 32.41C105.555 31.8127 105.457 31.1313 105.457 30.366C105.457 29.526 105.569 28.8027 105.793 28.196C106.026 27.58 106.33 27.0713 106.703 26.67C107.086 26.2593 107.524 25.956 108.019 25.76C108.523 25.564 109.041 25.466 109.573 25.466C110.441 25.466 111.141 25.6573 111.673 26.04C112.205 26.4133 112.63 26.95 112.947 27.65L111.421 28.49C111.262 28.0793 111.043 27.748 110.763 27.496C110.483 27.244 110.1 27.118 109.615 27.118C109.326 27.118 109.046 27.1833 108.775 27.314C108.504 27.4447 108.266 27.6453 108.061 27.916C107.856 28.1867 107.688 28.5273 107.557 28.938C107.436 29.3393 107.375 29.8153 107.375 30.366C107.375 30.8513 107.431 31.29 107.543 31.682C107.664 32.074 107.828 32.4053 108.033 32.676C108.248 32.9467 108.495 33.1567 108.775 33.306C109.064 33.4553 109.372 33.53 109.699 33.53C110.119 33.53 110.474 33.4367 110.763 33.25C111.062 33.054 111.318 32.718 111.533 32.242L113.003 33.138ZM115.669 32.06C115.697 32.34 115.757 32.5827 115.851 32.788C115.944 32.9933 116.061 33.1613 116.201 33.292C116.341 33.4227 116.495 33.5207 116.663 33.586C116.84 33.642 117.022 33.67 117.209 33.67C117.535 33.67 117.829 33.614 118.091 33.502C118.352 33.3807 118.623 33.124 118.903 32.732L120.261 33.558C119.869 34.146 119.421 34.5613 118.917 34.804C118.422 35.0373 117.834 35.154 117.153 35.154C116.705 35.154 116.28 35.084 115.879 34.944C115.477 34.804 115.123 34.5893 114.815 34.3C114.516 34.0013 114.278 33.6327 114.101 33.194C113.923 32.7553 113.835 32.2327 113.835 31.626C113.835 31.0567 113.919 30.5527 114.087 30.114C114.264 29.6753 114.502 29.3067 114.801 29.008C115.099 28.7093 115.445 28.4807 115.837 28.322C116.238 28.1633 116.663 28.084 117.111 28.084C118.053 28.084 118.809 28.4153 119.379 29.078C119.957 29.7313 120.256 30.7253 120.275 32.06H115.669ZM118.413 30.814C118.394 30.59 118.343 30.394 118.259 30.226C118.184 30.058 118.086 29.918 117.965 29.806C117.843 29.694 117.708 29.61 117.559 29.554C117.409 29.498 117.26 29.47 117.111 29.47C116.793 29.47 116.495 29.5913 116.215 29.834C115.935 30.0673 115.767 30.394 115.711 30.814H118.413ZM121.61 35V28.42L123.262 28.168L123.36 28.84C123.612 28.5693 123.864 28.3827 124.116 28.28C124.378 28.168 124.648 28.112 124.928 28.112C125.087 28.112 125.255 28.1307 125.432 28.168C125.61 28.2053 125.792 28.2567 125.978 28.322L125.656 29.904C125.47 29.8293 125.292 29.7733 125.124 29.736C124.966 29.6893 124.807 29.666 124.648 29.666C124.387 29.666 124.149 29.7267 123.934 29.848C123.729 29.9693 123.566 30.1093 123.444 30.268V35H121.61ZM129.193 29.652V33.096C129.193 33.3107 129.24 33.46 129.333 33.544C129.436 33.6187 129.534 33.656 129.627 33.656C129.814 33.656 129.996 33.6093 130.173 33.516C130.35 33.4227 130.504 33.3247 130.635 33.222L131.293 34.468C130.985 34.6733 130.663 34.8413 130.327 34.972C129.991 35.0933 129.627 35.154 129.235 35.154C129.002 35.154 128.773 35.1213 128.549 35.056C128.325 34.9907 128.124 34.888 127.947 34.748C127.779 34.608 127.639 34.426 127.527 34.202C127.424 33.9687 127.373 33.6887 127.373 33.362V29.652H126.379V28.252H127.373V26.684L129.193 26.404V28.252H130.943L130.719 29.652H129.193ZM133.143 27.482C132.779 27.482 132.504 27.3793 132.317 27.174C132.14 26.9687 132.051 26.74 132.051 26.488C132.051 26.2453 132.14 26.0213 132.317 25.816C132.504 25.6107 132.779 25.508 133.143 25.508C133.507 25.508 133.778 25.6107 133.955 25.816C134.142 26.0213 134.235 26.2453 134.235 26.488C134.235 26.74 134.142 26.9687 133.955 27.174C133.778 27.3793 133.507 27.482 133.143 27.482ZM132.233 35V28.434L134.053 28.154V35H132.233ZM136.122 35V29.652H135.184V28.252H136.122V28.014C136.122 27.5473 136.201 27.1507 136.36 26.824C136.528 26.4973 136.747 26.236 137.018 26.04C137.289 25.8347 137.597 25.69 137.942 25.606C138.297 25.5127 138.665 25.466 139.048 25.466C139.664 25.466 140.163 25.5313 140.546 25.662C140.929 25.7833 141.246 25.9327 141.498 26.11L140.644 27.44C140.476 27.3093 140.271 27.2067 140.028 27.132C139.785 27.048 139.501 27.006 139.174 27.006C138.847 27.006 138.558 27.0853 138.306 27.244C138.063 27.4027 137.942 27.6827 137.942 28.084V28.252H139.58L139.356 29.652H137.956V35H136.122ZM140.154 35V28.434L141.974 28.154V35H140.154ZM149.554 33.376C149.264 33.992 148.872 34.4447 148.378 34.734C147.892 35.014 147.323 35.154 146.67 35.154C146.24 35.154 145.825 35.0793 145.424 34.93C145.032 34.7807 144.682 34.5613 144.374 34.272C144.075 33.9733 143.832 33.6093 143.646 33.18C143.468 32.7413 143.38 32.2327 143.38 31.654C143.38 31.0567 143.468 30.534 143.646 30.086C143.823 29.638 144.056 29.2647 144.346 28.966C144.644 28.6673 144.985 28.448 145.368 28.308C145.75 28.1587 146.147 28.084 146.558 28.084C146.968 28.084 147.332 28.1447 147.65 28.266C147.976 28.378 148.256 28.5273 148.49 28.714C148.732 28.9007 148.928 29.1107 149.078 29.344C149.236 29.5773 149.358 29.8107 149.442 30.044L148 30.758C147.841 30.31 147.64 29.9973 147.398 29.82C147.164 29.6333 146.898 29.54 146.6 29.54C146.413 29.54 146.236 29.582 146.068 29.666C145.9 29.75 145.746 29.876 145.606 30.044C145.475 30.212 145.368 30.4267 145.284 30.688C145.209 30.9493 145.172 31.262 145.172 31.626C145.172 32.27 145.312 32.7693 145.592 33.124C145.881 33.4787 146.254 33.656 146.712 33.656C147.066 33.656 147.356 33.5673 147.58 33.39C147.804 33.2127 148.004 32.9607 148.182 32.634L149.554 33.376ZM154.497 35L154.413 34.496C154.217 34.7013 153.965 34.8647 153.657 34.986C153.358 35.098 153.027 35.154 152.663 35.154C152.364 35.154 152.07 35.1027 151.781 35C151.501 34.9067 151.253 34.7713 151.039 34.594C150.824 34.4073 150.651 34.1833 150.521 33.922C150.39 33.6513 150.325 33.348 150.325 33.012C150.325 32.5173 150.455 32.1207 150.717 31.822C150.987 31.514 151.323 31.276 151.725 31.108C152.126 30.94 152.56 30.8233 153.027 30.758C153.493 30.6927 153.927 30.646 154.329 30.618V30.394C154.329 30.114 154.245 29.8947 154.077 29.736C153.918 29.568 153.675 29.484 153.349 29.484C153.087 29.484 152.849 29.54 152.635 29.652C152.429 29.7547 152.247 29.8993 152.089 30.086L150.843 29.218C151.02 28.994 151.221 28.8073 151.445 28.658C151.678 28.5087 151.911 28.392 152.145 28.308C152.387 28.224 152.625 28.168 152.859 28.14C153.092 28.1027 153.307 28.084 153.503 28.084C153.895 28.084 154.254 28.1353 154.581 28.238C154.907 28.3313 155.187 28.4853 155.421 28.7C155.663 28.9053 155.85 29.1713 155.981 29.498C156.111 29.8153 156.177 30.2027 156.177 30.66V35H154.497ZM154.343 31.85C154.081 31.8687 153.815 31.892 153.545 31.92C153.283 31.948 153.045 31.9993 152.831 32.074C152.616 32.1487 152.439 32.2607 152.299 32.41C152.168 32.55 152.103 32.7367 152.103 32.97C152.103 33.194 152.187 33.376 152.355 33.516C152.523 33.6467 152.77 33.712 153.097 33.712C153.33 33.712 153.554 33.6653 153.769 33.572C153.993 33.4787 154.184 33.362 154.343 33.222V31.85ZM160.064 29.652V33.096C160.064 33.3107 160.111 33.46 160.204 33.544C160.307 33.6187 160.405 33.656 160.498 33.656C160.685 33.656 160.867 33.6093 161.044 33.516C161.221 33.4227 161.375 33.3247 161.506 33.222L162.164 34.468C161.856 34.6733 161.534 34.8413 161.198 34.972C160.862 35.0933 160.498 35.154 160.106 35.154C159.873 35.154 159.644 35.1213 159.42 35.056C159.196 34.9907 158.995 34.888 158.818 34.748C158.65 34.608 158.51 34.426 158.398 34.202C158.295 33.9687 158.244 33.6887 158.244 33.362V29.652H157.25V28.252H158.244V26.684L160.064 26.404V28.252H161.814L161.59 29.652H160.064ZM164.518 32.06C164.546 32.34 164.607 32.5827 164.7 32.788C164.794 32.9933 164.91 33.1613 165.05 33.292C165.19 33.4227 165.344 33.5207 165.512 33.586C165.69 33.642 165.872 33.67 166.058 33.67C166.385 33.67 166.679 33.614 166.94 33.502C167.202 33.3807 167.472 33.124 167.752 32.732L169.11 33.558C168.718 34.146 168.27 34.5613 167.766 34.804C167.272 35.0373 166.684 35.154 166.002 35.154C165.554 35.154 165.13 35.084 164.728 34.944C164.327 34.804 163.972 34.5893 163.664 34.3C163.366 34.0013 163.128 33.6327 162.95 33.194C162.773 32.7553 162.684 32.2327 162.684 31.626C162.684 31.0567 162.768 30.5527 162.936 30.114C163.114 29.6753 163.352 29.3067 163.65 29.008C163.949 28.7093 164.294 28.4807 164.686 28.322C165.088 28.1633 165.512 28.084 165.96 28.084C166.903 28.084 167.659 28.4153 168.228 29.078C168.807 29.7313 169.106 30.7253 169.124 32.06H164.518ZM167.262 30.814C167.244 30.59 167.192 30.394 167.108 30.226C167.034 30.058 166.936 29.918 166.814 29.806C166.693 29.694 166.558 29.61 166.408 29.554C166.259 29.498 166.11 29.47 165.96 29.47C165.643 29.47 165.344 29.5913 165.064 29.834C164.784 30.0673 164.616 30.394 164.56 30.814H167.262ZM171.118 35.154C170.763 35.154 170.502 35.0513 170.334 34.846C170.166 34.6313 170.082 34.398 170.082 34.146C170.082 33.8847 170.166 33.6513 170.334 33.446C170.502 33.2313 170.763 33.124 171.118 33.124C171.454 33.124 171.706 33.2313 171.874 33.446C172.042 33.6513 172.126 33.8847 172.126 34.146C172.126 34.398 172.042 34.6313 171.874 34.846C171.715 35.0513 171.463 35.154 171.118 35.154ZM173.563 37.646V28.42L175.215 28.168L175.313 28.756C175.481 28.5973 175.701 28.448 175.971 28.308C176.251 28.1587 176.587 28.084 176.979 28.084C177.474 28.084 177.903 28.1727 178.267 28.35C178.641 28.5273 178.949 28.77 179.191 29.078C179.434 29.386 179.616 29.7547 179.737 30.184C179.859 30.604 179.919 31.066 179.919 31.57C179.919 32.0087 179.849 32.4427 179.709 32.872C179.569 33.3013 179.35 33.684 179.051 34.02C178.762 34.356 178.393 34.6313 177.945 34.846C177.497 35.0513 176.961 35.154 176.335 35.154C176.177 35.154 176.013 35.1353 175.845 35.098C175.677 35.0607 175.528 35.014 175.397 34.958V37.646H173.563ZM175.383 33.446C175.691 33.5767 175.976 33.642 176.237 33.642C176.573 33.642 176.858 33.586 177.091 33.474C177.334 33.362 177.53 33.2127 177.679 33.026C177.838 32.83 177.955 32.6107 178.029 32.368C178.104 32.1253 178.141 31.878 178.141 31.626C178.141 31.346 178.113 31.08 178.057 30.828C178.001 30.5667 177.913 30.3427 177.791 30.156C177.67 29.9693 177.511 29.82 177.315 29.708C177.119 29.596 176.881 29.54 176.601 29.54C176.349 29.54 176.111 29.61 175.887 29.75C175.663 29.8807 175.495 30.0253 175.383 30.184V33.446ZM185.627 35L185.543 34.482C185.375 34.6593 185.156 34.818 184.885 34.958C184.615 35.0887 184.293 35.154 183.919 35.154C183.425 35.154 182.991 35.0607 182.617 34.874C182.244 34.6873 181.927 34.4353 181.665 34.118C181.413 33.7913 181.222 33.4133 181.091 32.984C180.961 32.5547 180.895 32.0927 180.895 31.598C180.895 31.1593 180.965 30.73 181.105 30.31C181.245 29.89 181.455 29.5167 181.735 29.19C182.015 28.854 182.365 28.588 182.785 28.392C183.205 28.1867 183.7 28.084 184.269 28.084C184.633 28.084 185.035 28.1493 185.473 28.28V25.746L187.293 25.466V35H185.627ZM185.473 29.75C185.109 29.6193 184.783 29.554 184.493 29.554C184.185 29.554 183.915 29.61 183.681 29.722C183.457 29.834 183.271 29.988 183.121 30.184C182.972 30.3707 182.86 30.5853 182.785 30.828C182.711 31.0613 182.673 31.304 182.673 31.556C182.673 31.8453 182.701 32.1207 182.757 32.382C182.823 32.634 182.921 32.858 183.051 33.054C183.182 33.2407 183.345 33.39 183.541 33.502C183.747 33.614 183.994 33.67 184.283 33.67C184.507 33.67 184.736 33.614 184.969 33.502C185.203 33.3807 185.371 33.2407 185.473 33.082V29.75ZM189.36 35V29.652H188.422V28.252H189.36V28.014C189.36 27.566 189.421 27.1833 189.542 26.866C189.664 26.5487 189.827 26.2873 190.032 26.082C190.247 25.8673 190.494 25.7133 190.774 25.62C191.064 25.5173 191.376 25.466 191.712 25.466C192.16 25.466 192.548 25.5033 192.874 25.578C193.21 25.6433 193.514 25.7413 193.784 25.872L193.252 27.272C192.86 27.0853 192.445 26.992 192.006 26.992C191.773 26.992 191.577 27.0667 191.418 27.216C191.26 27.3653 191.18 27.636 191.18 28.028V28.252H192.818L192.594 29.652H191.194V35H189.36Z" fill="black"/>
<path d="M74.878 59V51.09L72.778 52.434L72.232 51.664L75.032 49.816H76.012V59H74.878ZM82.4385 59V51.09L80.3385 52.434L79.7925 51.664L82.5925 49.816H83.5725V59H82.4385ZM90.3518 56.998C90.6225 57.39 90.9771 57.684 91.4158 57.88C91.8545 58.076 92.3025 58.174 92.7598 58.174C93.0025 58.174 93.2311 58.146 93.4458 58.09C93.6698 58.0247 93.8611 57.9313 94.0198 57.81C94.1878 57.6793 94.3185 57.5113 94.4118 57.306C94.5145 57.1007 94.5658 56.858 94.5658 56.578C94.5658 56.3167 94.5051 56.088 94.3838 55.892C94.2625 55.6867 94.0991 55.5047 93.8938 55.346C93.6885 55.1873 93.4551 55.0473 93.1938 54.926C92.9325 54.7953 92.6618 54.6693 92.3818 54.548C92.0645 54.408 91.7471 54.268 91.4298 54.128C91.1218 53.9787 90.8465 53.8013 90.6038 53.596C90.3611 53.3907 90.1605 53.1527 90.0018 52.882C89.8525 52.6113 89.7778 52.28 89.7778 51.888C89.7778 51.4867 89.8571 51.1367 90.0158 50.838C90.1838 50.53 90.4031 50.278 90.6738 50.082C90.9538 49.8767 91.2665 49.7273 91.6118 49.634C91.9665 49.5313 92.3351 49.48 92.7178 49.48C93.3058 49.48 93.8705 49.5967 94.4118 49.83C94.9531 50.0633 95.3918 50.432 95.7278 50.936L94.8738 51.608C94.6311 51.272 94.3185 51.0013 93.9358 50.796C93.5625 50.5813 93.1518 50.474 92.7038 50.474C92.1438 50.474 91.7145 50.5953 91.4158 50.838C91.1171 51.0807 90.9678 51.412 90.9678 51.832C90.9678 52.0653 91.0191 52.266 91.1218 52.434C91.2338 52.5927 91.3831 52.7373 91.5698 52.868C91.7658 52.9987 91.9991 53.1293 92.2698 53.26C92.5405 53.3813 92.8438 53.5167 93.1798 53.666C93.4971 53.8153 93.8098 53.9693 94.1178 54.128C94.4258 54.2867 94.7011 54.4733 94.9438 54.688C95.1865 54.8933 95.3825 55.1407 95.5318 55.43C95.6811 55.7193 95.7558 56.0647 95.7558 56.466C95.7558 56.942 95.6718 57.3527 95.5038 57.698C95.3451 58.0433 95.1258 58.328 94.8458 58.552C94.5658 58.776 94.2391 58.9393 93.8658 59.042C93.5018 59.1447 93.1098 59.196 92.6898 59.196C92.3725 59.196 92.0551 59.1587 91.7378 59.084C91.4298 59.0187 91.1311 58.9207 90.8418 58.79C90.5618 58.6593 90.3005 58.5007 90.0578 58.314C89.8245 58.118 89.6285 57.8987 89.4698 57.656L90.3518 56.998ZM97.9766 55.598C97.9766 56.4473 98.1679 57.11 98.5506 57.586C98.9332 58.0527 99.4886 58.286 100.217 58.286C100.637 58.286 100.991 58.1833 101.281 57.978C101.57 57.7727 101.803 57.5207 101.981 57.222L102.695 57.698C102.452 58.118 102.135 58.468 101.743 58.748C101.36 59.0187 100.842 59.154 100.189 59.154C99.6846 59.154 99.2319 59.0793 98.8306 58.93C98.4292 58.7713 98.0839 58.5473 97.7946 58.258C97.5146 57.9593 97.2952 57.5907 97.1366 57.152C96.9872 56.7133 96.9126 56.2047 96.9126 55.626C96.9126 55.094 96.9826 54.618 97.1226 54.198C97.2719 53.7687 97.4726 53.4047 97.7246 53.106C97.9859 52.798 98.2986 52.5647 98.6626 52.406C99.0359 52.238 99.4466 52.154 99.8946 52.154C100.389 52.154 100.819 52.238 101.183 52.406C101.556 52.574 101.864 52.812 102.107 53.12C102.349 53.4187 102.531 53.7827 102.653 54.212C102.774 54.632 102.835 55.094 102.835 55.598H97.9766ZM101.617 54.744C101.607 54.4547 101.551 54.2027 101.449 53.988C101.346 53.764 101.215 53.582 101.057 53.442C100.898 53.2927 100.716 53.1853 100.511 53.12C100.305 53.0453 100.1 53.008 99.8946 53.008C99.4466 53.008 99.0592 53.1433 98.7326 53.414C98.4152 53.6753 98.1959 54.1187 98.0746 54.744H101.617ZM105.31 52.238L105.408 52.812C105.697 52.5787 106.001 52.4107 106.318 52.308C106.645 52.2053 106.985 52.154 107.34 52.154C107.835 52.154 108.255 52.2473 108.6 52.434C108.945 52.6207 109.225 52.8727 109.44 53.19C109.664 53.5073 109.823 53.876 109.916 54.296C110.019 54.7067 110.07 55.136 110.07 55.584C110.07 56.1253 109.986 56.6153 109.818 57.054C109.65 57.4927 109.417 57.8707 109.118 58.188C108.829 58.496 108.479 58.734 108.068 58.902C107.657 59.07 107.214 59.154 106.738 59.154C106.197 59.154 105.758 59.0793 105.422 58.93V61.646H104.344V52.406L105.31 52.238ZM105.422 57.992C105.525 58.0667 105.674 58.1367 105.87 58.202C106.066 58.258 106.285 58.286 106.528 58.286C106.883 58.286 107.209 58.2253 107.508 58.104C107.816 57.9827 108.077 57.81 108.292 57.586C108.516 57.362 108.689 57.0867 108.81 56.76C108.931 56.424 108.992 56.046 108.992 55.626C108.992 55.318 108.959 55.01 108.894 54.702C108.829 54.3847 108.721 54.1047 108.572 53.862C108.423 53.61 108.222 53.4093 107.97 53.26C107.727 53.1013 107.424 53.022 107.06 53.022C106.761 53.022 106.472 53.0873 106.192 53.218C105.912 53.3487 105.655 53.5213 105.422 53.736V57.992ZM110.628 59.924C110.796 59.8773 110.983 59.7793 111.188 59.63C111.403 59.49 111.548 59.336 111.622 59.168C111.51 59.1213 111.403 59.028 111.3 58.888C111.207 58.7387 111.16 58.538 111.16 58.286C111.16 58.0527 111.23 57.8473 111.37 57.67C111.51 57.4927 111.688 57.404 111.902 57.404C112.126 57.404 112.308 57.4973 112.448 57.684C112.598 57.8613 112.672 58.0993 112.672 58.398C112.672 58.6313 112.612 58.8507 112.49 59.056C112.378 59.2707 112.229 59.4667 112.042 59.644C111.856 59.8213 111.65 59.9707 111.426 60.092C111.202 60.2227 110.978 60.3207 110.754 60.386L110.628 59.924ZM117.156 59V58.342C117.67 57.754 118.16 57.1987 118.626 56.676C119.093 56.144 119.522 55.626 119.914 55.122C120.148 54.8327 120.348 54.5667 120.516 54.324C120.694 54.0813 120.843 53.848 120.964 53.624C121.086 53.4 121.174 53.1807 121.23 52.966C121.296 52.7513 121.328 52.5227 121.328 52.28C121.328 51.748 121.188 51.3467 120.908 51.076C120.638 50.8053 120.278 50.67 119.83 50.67C118.981 50.67 118.286 51.132 117.744 52.056L116.862 51.538C117.189 50.9407 117.6 50.4787 118.094 50.152C118.589 49.8253 119.191 49.662 119.9 49.662C120.302 49.662 120.661 49.7227 120.978 49.844C121.305 49.9653 121.58 50.138 121.804 50.362C122.038 50.5767 122.215 50.838 122.336 51.146C122.467 51.4447 122.532 51.776 122.532 52.14C122.532 52.7467 122.383 53.316 122.084 53.848C121.795 54.3707 121.44 54.8887 121.02 55.402C120.647 55.8687 120.264 56.3213 119.872 56.76C119.49 57.1893 119.102 57.6187 118.71 58.048H122.77V59H117.156ZM130.779 54.408C130.779 55.0053 130.709 55.5887 130.569 56.158C130.438 56.7273 130.238 57.236 129.967 57.684C129.696 58.1227 129.351 58.4773 128.931 58.748C128.511 59.0187 128.016 59.154 127.447 59.154C126.868 59.154 126.369 59.0187 125.949 58.748C125.538 58.4773 125.193 58.1227 124.913 57.684C124.642 57.236 124.442 56.7273 124.311 56.158C124.18 55.5887 124.115 55.0053 124.115 54.408C124.115 53.8107 124.18 53.2273 124.311 52.658C124.442 52.0887 124.642 51.5847 124.913 51.146C125.193 50.698 125.538 50.3387 125.949 50.068C126.369 49.7973 126.868 49.662 127.447 49.662C128.016 49.662 128.511 49.7973 128.931 50.068C129.351 50.3387 129.696 50.698 129.967 51.146C130.247 51.5847 130.452 52.0887 130.583 52.658C130.714 53.2273 130.779 53.8107 130.779 54.408ZM129.589 54.394C129.589 53.9273 129.547 53.4747 129.463 53.036C129.388 52.588 129.262 52.1913 129.085 51.846C128.908 51.4913 128.684 51.2067 128.413 50.992C128.142 50.7773 127.82 50.67 127.447 50.67C127.064 50.67 126.738 50.7773 126.467 50.992C126.196 51.2067 125.972 51.4913 125.795 51.846C125.618 52.1913 125.487 52.588 125.403 53.036C125.328 53.4747 125.291 53.9273 125.291 54.394C125.291 54.8607 125.333 55.318 125.417 55.766C125.501 56.214 125.627 56.6153 125.795 56.97C125.972 57.3247 126.196 57.6093 126.467 57.824C126.738 58.0387 127.064 58.146 127.447 58.146C127.82 58.146 128.142 58.0387 128.413 57.824C128.684 57.6093 128.903 57.3247 129.071 56.97C129.248 56.6153 129.379 56.214 129.463 55.766C129.547 55.318 129.589 54.8607 129.589 54.394ZM132.278 59V58.342C132.791 57.754 133.281 57.1987 133.748 56.676C134.214 56.144 134.644 55.626 135.036 55.122C135.269 54.8327 135.47 54.5667 135.638 54.324C135.815 54.0813 135.964 53.848 136.086 53.624C136.207 53.4 136.296 53.1807 136.352 52.966C136.417 52.7513 136.45 52.5227 136.45 52.28C136.45 51.748 136.31 51.3467 136.03 51.076C135.759 50.8053 135.4 50.67 134.952 50.67C134.102 50.67 133.407 51.132 132.866 52.056L131.984 51.538C132.31 50.9407 132.721 50.4787 133.216 50.152C133.71 49.8253 134.312 49.662 135.022 49.662C135.423 49.662 135.782 49.7227 136.1 49.844C136.426 49.9653 136.702 50.138 136.926 50.362C137.159 50.5767 137.336 50.838 137.458 51.146C137.588 51.4447 137.654 51.776 137.654 52.14C137.654 52.7467 137.504 53.316 137.206 53.848C136.916 54.3707 136.562 54.8887 136.142 55.402C135.768 55.8687 135.386 56.3213 134.994 56.76C134.611 57.1893 134.224 57.6187 133.832 58.048H137.892V59H132.278ZM140.552 57.152C140.935 57.8147 141.574 58.146 142.47 58.146C143.058 58.146 143.534 57.978 143.898 57.642C144.271 57.2967 144.458 56.7973 144.458 56.144C144.458 55.416 144.169 54.8653 143.59 54.492C143.021 54.1093 142.213 53.918 141.168 53.918H140.146V49.816H145.116V50.768H141.196V52.966H141.308C141.896 52.966 142.447 53.022 142.96 53.134C143.473 53.2367 143.917 53.414 144.29 53.666C144.673 53.918 144.971 54.2493 145.186 54.66C145.41 55.0613 145.522 55.5607 145.522 56.158C145.522 56.6527 145.443 57.0867 145.284 57.46C145.125 57.8333 144.906 58.146 144.626 58.398C144.346 58.65 144.019 58.8413 143.646 58.972C143.273 59.0933 142.876 59.154 142.456 59.154C141.868 59.154 141.327 59.0373 140.832 58.804C140.337 58.5613 139.955 58.1973 139.684 57.712L140.552 57.152ZM158.673 59V51.09L156.573 52.434L156.027 51.664L158.827 49.816H159.807V59H158.673ZM163.531 59V58.342C164.045 57.754 164.535 57.1987 165.001 56.676C165.468 56.144 165.897 55.626 166.289 55.122C166.523 54.8327 166.723 54.5667 166.891 54.324C167.069 54.0813 167.218 53.848 167.339 53.624C167.461 53.4 167.549 53.1807 167.605 52.966C167.671 52.7513 167.703 52.5227 167.703 52.28C167.703 51.748 167.563 51.3467 167.283 51.076C167.013 50.8053 166.653 50.67 166.205 50.67C165.356 50.67 164.661 51.132 164.119 52.056L163.237 51.538C163.564 50.9407 163.975 50.4787 164.469 50.152C164.964 49.8253 165.566 49.662 166.275 49.662C166.677 49.662 167.036 49.7227 167.353 49.844C167.68 49.9653 167.955 50.138 168.179 50.362C168.413 50.5767 168.59 50.838 168.711 51.146C168.842 51.4447 168.907 51.776 168.907 52.14C168.907 52.7467 168.758 53.316 168.459 53.848C168.17 54.3707 167.815 54.8887 167.395 55.402C167.022 55.8687 166.639 56.3213 166.247 56.76C165.865 57.1893 165.477 57.6187 165.085 58.048H169.145V59H163.531ZM171.428 59.154C171.213 59.154 171.031 59.0747 170.882 58.916C170.742 58.748 170.672 58.5473 170.672 58.314C170.672 58.0807 170.742 57.8847 170.882 57.726C171.031 57.558 171.213 57.474 171.428 57.474C171.643 57.474 171.82 57.558 171.96 57.726C172.109 57.8847 172.184 58.0807 172.184 58.314C172.184 58.5473 172.109 58.748 171.96 58.916C171.82 59.0747 171.643 59.154 171.428 59.154ZM171.428 54.016C171.213 54.016 171.031 53.9367 170.882 53.778C170.742 53.61 170.672 53.4093 170.672 53.176C170.672 52.9427 170.742 52.7467 170.882 52.588C171.031 52.42 171.213 52.336 171.428 52.336C171.643 52.336 171.82 52.42 171.96 52.588C172.109 52.7467 172.184 52.9427 172.184 53.176C172.184 53.4093 172.109 53.61 171.96 53.778C171.82 53.9367 171.643 54.016 171.428 54.016ZM173.867 59V58.342C174.381 57.754 174.871 57.1987 175.337 56.676C175.804 56.144 176.233 55.626 176.625 55.122C176.859 54.8327 177.059 54.5667 177.227 54.324C177.405 54.0813 177.554 53.848 177.675 53.624C177.797 53.4 177.885 53.1807 177.941 52.966C178.007 52.7513 178.039 52.5227 178.039 52.28C178.039 51.748 177.899 51.3467 177.619 51.076C177.349 50.8053 176.989 50.67 176.541 50.67C175.692 50.67 174.997 51.132 174.455 52.056L173.573 51.538C173.9 50.9407 174.311 50.4787 174.805 50.152C175.3 49.8253 175.902 49.662 176.611 49.662C177.013 49.662 177.372 49.7227 177.689 49.844C178.016 49.9653 178.291 50.138 178.515 50.362C178.749 50.5767 178.926 50.838 179.047 51.146C179.178 51.4447 179.243 51.776 179.243 52.14C179.243 52.7467 179.094 53.316 178.795 53.848C178.506 54.3707 178.151 54.8887 177.731 55.402C177.358 55.8687 176.975 56.3213 176.583 56.76C176.201 57.1893 175.813 57.6187 175.421 58.048H179.481V59H173.867ZM180.924 56.13V55.136L185.516 49.816H186.23V55.192H187.238V56.13H186.23V59H185.18V56.13H180.924ZM182.114 55.192H185.18V51.692L182.114 55.192ZM189.87 52.238L189.968 52.812C190.258 52.5787 190.561 52.4107 190.878 52.308C191.205 52.2053 191.546 52.154 191.9 52.154C192.395 52.154 192.815 52.2473 193.16 52.434C193.506 52.6207 193.786 52.8727 194 53.19C194.224 53.5073 194.383 53.876 194.476 54.296C194.579 54.7067 194.63 55.136 194.63 55.584C194.63 56.1253 194.546 56.6153 194.378 57.054C194.21 57.4927 193.977 57.8707 193.678 58.188C193.389 58.496 193.039 58.734 192.628 58.902C192.218 59.07 191.774 59.154 191.298 59.154C190.757 59.154 190.318 59.0793 189.982 58.93V61.646H188.904V52.406L189.87 52.238ZM189.982 57.992C190.085 58.0667 190.234 58.1367 190.43 58.202C190.626 58.258 190.846 58.286 191.088 58.286C191.443 58.286 191.77 58.2253 192.068 58.104C192.376 57.9827 192.638 57.81 192.852 57.586C193.076 57.362 193.249 57.0867 193.37 56.76C193.492 56.424 193.552 56.046 193.552 55.626C193.552 55.318 193.52 55.01 193.454 54.702C193.389 54.3847 193.282 54.1047 193.132 53.862C192.983 53.61 192.782 53.4093 192.53 53.26C192.288 53.1013 191.984 53.022 191.62 53.022C191.322 53.022 191.032 53.0873 190.752 53.218C190.472 53.3487 190.216 53.5213 189.982 53.736V57.992ZM204.856 59V54.828C204.856 54.268 204.749 53.834 204.534 53.526C204.32 53.2087 203.928 53.05 203.358 53.05C203.172 53.05 202.985 53.078 202.798 53.134C202.612 53.1807 202.434 53.2413 202.266 53.316C202.108 53.3907 201.958 53.47 201.818 53.554C201.688 53.638 201.576 53.7173 201.482 53.792C201.529 53.9507 201.562 54.1187 201.58 54.296C201.608 54.464 201.622 54.688 201.622 54.968V59H200.544V54.828C200.544 54.5853 200.521 54.3567 200.474 54.142C200.437 53.9273 200.362 53.7407 200.25 53.582C200.148 53.414 200.008 53.2833 199.83 53.19C199.653 53.0967 199.424 53.05 199.144 53.05C198.818 53.05 198.491 53.134 198.164 53.302C197.847 53.4607 197.567 53.624 197.324 53.792V59H196.246V52.406L197.226 52.238L197.31 52.854C197.534 52.6953 197.824 52.5413 198.178 52.392C198.533 52.2333 198.92 52.154 199.34 52.154C199.695 52.154 200.036 52.2147 200.362 52.336C200.698 52.4573 200.978 52.6813 201.202 53.008C201.482 52.7747 201.823 52.574 202.224 52.406C202.626 52.238 203.064 52.154 203.54 52.154C204.007 52.154 204.394 52.2193 204.702 52.35C205.02 52.4713 205.267 52.6533 205.444 52.896C205.631 53.1293 205.762 53.4233 205.836 53.778C205.911 54.1233 205.948 54.52 205.948 54.968V59H204.856Z" fill="#98A2B3"/>
<path d="M150.131 60.036V48.668H151.139V60.036H150.131Z" fill="#F0F2F5"/>
<circle cx="215" cy="54" r="2" fill="#98A2B3"/>
<path d="M227.106 59V51.09L225.006 52.434L224.46 51.664L227.26 49.816H228.24V59H227.106ZM232.329 56.942C232.572 57.3713 232.87 57.6793 233.225 57.866C233.589 58.0527 233.958 58.146 234.331 58.146C234.583 58.146 234.826 58.1133 235.059 58.048C235.302 57.9733 235.512 57.866 235.689 57.726C235.876 57.586 236.02 57.4087 236.123 57.194C236.235 56.9793 236.291 56.7227 236.291 56.424C236.291 56.1347 236.235 55.8827 236.123 55.668C236.011 55.444 235.862 55.262 235.675 55.122C235.498 54.9727 235.283 54.8607 235.031 54.786C234.788 54.7113 234.536 54.6647 234.275 54.646V53.806C234.508 53.7873 234.737 53.7407 234.961 53.666C235.185 53.5913 235.386 53.4887 235.563 53.358C235.74 53.218 235.88 53.05 235.983 52.854C236.095 52.658 236.151 52.4293 236.151 52.168C236.151 51.6827 236.002 51.314 235.703 51.062C235.414 50.8007 235.003 50.67 234.471 50.67C234.051 50.67 233.678 50.7773 233.351 50.992C233.034 51.2067 232.786 51.4913 232.609 51.846L231.727 51.3C231.998 50.768 232.39 50.362 232.903 50.082C233.416 49.802 233.967 49.662 234.555 49.662C234.947 49.662 235.311 49.718 235.647 49.83C235.992 49.942 236.286 50.1053 236.529 50.32C236.772 50.5253 236.963 50.7773 237.103 51.076C237.243 51.3747 237.313 51.7107 237.313 52.084C237.313 52.6253 237.182 53.064 236.921 53.4C236.669 53.7267 236.347 53.988 235.955 54.184C236.16 54.268 236.352 54.3707 236.529 54.492C236.716 54.6133 236.879 54.7627 237.019 54.94C237.159 55.108 237.266 55.3133 237.341 55.556C237.425 55.7987 237.467 56.0833 237.467 56.41C237.467 56.858 237.378 57.2547 237.201 57.6C237.024 57.936 236.79 58.2207 236.501 58.454C236.212 58.678 235.88 58.8507 235.507 58.972C235.134 59.0933 234.751 59.154 234.359 59.154C234.07 59.154 233.785 59.1213 233.505 59.056C233.225 58.9907 232.954 58.888 232.693 58.748C232.441 58.608 232.208 58.4353 231.993 58.23C231.778 58.0153 231.596 57.768 231.447 57.488L232.329 56.942ZM239.61 59V49.662H240.926L243.642 56.872L246.442 49.662H247.744V59H246.666V51.874L243.768 59.154H243.544L240.702 51.888V59H239.61ZM250.014 59V49.662H252.8C253.761 49.662 254.494 49.8767 254.998 50.306C255.502 50.7353 255.754 51.314 255.754 52.042C255.754 52.6393 255.577 53.1013 255.222 53.428C254.867 53.7453 254.41 53.9507 253.85 54.044C254.13 54.072 254.41 54.1327 254.69 54.226C254.97 54.31 255.222 54.4453 255.446 54.632C255.679 54.8187 255.866 55.0567 256.006 55.346C256.155 55.626 256.23 55.976 256.23 56.396C256.23 56.7973 256.155 57.1613 256.006 57.488C255.866 57.8053 255.67 58.076 255.418 58.3C255.166 58.524 254.867 58.6967 254.522 58.818C254.177 58.9393 253.799 59 253.388 59H250.014ZM251.134 53.624H252.702C253.29 53.624 253.747 53.4887 254.074 53.218C254.41 52.938 254.578 52.546 254.578 52.042C254.578 51.5847 254.429 51.2347 254.13 50.992C253.841 50.7493 253.411 50.628 252.842 50.628H251.134V53.624ZM251.134 58.034H253.29C253.822 58.034 254.247 57.9033 254.564 57.642C254.881 57.3713 255.04 56.956 255.04 56.396C255.04 55.7987 254.844 55.3507 254.452 55.052C254.069 54.744 253.5 54.59 252.744 54.59H251.134V58.034Z" fill="#98A2B3"/>
<path fill-rule="evenodd" clip-rule="evenodd" d="M334.167 31.5013C332.878 31.5013 331.833 32.546 331.833 33.8346V50.168C331.833 51.4566 332.878 52.5013 334.167 52.5013H336.5C337.144 52.5013 337.667 53.0236 337.667 53.668C337.667 54.3123 337.144 54.8346 336.5 54.8346H334.167C331.589 54.8346 329.5 52.7453 329.5 50.168V33.8346C329.5 31.2573 331.589 29.168 334.167 29.168H341.861C343.246 29.168 344.559 29.7831 345.446 30.8471L349.418 35.6143C350.117 36.453 350.5 37.5101 350.5 38.6018V50.168C350.5 52.7453 348.411 54.8346 345.833 54.8346H343.5C342.856 54.8346 342.333 54.3123 342.333 53.668C342.333 53.0236 342.856 52.5013 343.5 52.5013H345.833C347.122 52.5013 348.167 51.4566 348.167 50.168V39.668H345.833C343.256 39.668 341.167 37.5786 341.167 35.0013V31.5013H334.167ZM347.626 37.108C347.686 37.1805 347.742 37.2562 347.793 37.3346H345.833C344.545 37.3346 343.5 36.29 343.5 35.0013V32.1742C343.553 32.227 343.605 32.2826 343.653 32.3409L347.626 37.108Z" fill="#CC400C"/>
<path d="M342.525 51.8177L340.775 53.3733C340.333 53.7662 339.667 53.7662 339.225 53.3733L337.475 51.8177C336.993 51.3897 336.95 50.6522 337.378 50.1707C337.753 49.7494 338.364 49.6634 338.833 49.9351V44.3346C338.833 43.6903 339.356 43.168 340 43.168C340.644 43.168 341.167 43.6903 341.167 44.3346V49.9351C341.636 49.6634 342.247 49.7494 342.622 50.1707C343.05 50.6522 343.007 51.3897 342.525 51.8177Z" fill="#CC400C"/>
</svg>
