<svg width="251" height="12" viewBox="0 0 251 12" fill="none" xmlns="http://www.w3.org/2000/svg">
<path d="M0.972 9V0.995999H2.1L4.428 7.176L6.828 0.995999H7.944V9H7.02V2.892L4.536 9.132H4.344L1.908 2.904V9H0.972ZM14.354 3.276L11.426 10.512C11.282 10.864 11.078 11.104 10.814 11.232C10.558 11.36 10.29 11.424 10.01 11.424C9.82597 11.424 9.62997 11.396 9.42197 11.34C9.22197 11.292 9.06597 11.244 8.95397 11.196L9.21797 10.512C9.30597 10.544 9.41397 10.572 9.54197 10.596C9.67797 10.628 9.81397 10.644 9.94997 10.644C10.134 10.644 10.278 10.6 10.382 10.512C10.486 10.424 10.594 10.252 10.706 9.996L11.174 8.856L8.91797 3.276H9.97397L11.666 7.68L13.358 3.276H14.354ZM18.7738 9L16.7578 0.995999H17.7298L19.2058 6.648L21.0058 0.995999H21.5098L23.3338 6.648L24.7858 0.995999H25.7698L23.7538 9H23.1778L21.2578 3.036L19.3498 9H18.7738ZM31.3448 6.132C31.3448 6.508 31.2888 6.876 31.1768 7.236C31.0648 7.596 30.8968 7.916 30.6728 8.196C30.4568 8.476 30.1808 8.704 29.8448 8.88C29.5088 9.048 29.1208 9.132 28.6808 9.132C28.2408 9.132 27.8528 9.048 27.5168 8.88C27.1888 8.704 26.9128 8.476 26.6888 8.196C26.4648 7.908 26.2968 7.584 26.1848 7.224C26.0728 6.856 26.0168 6.484 26.0168 6.108C26.0168 5.732 26.0688 5.368 26.1728 5.016C26.2848 4.656 26.4528 4.336 26.6768 4.056C26.9008 3.776 27.1768 3.552 27.5048 3.384C27.8408 3.216 28.2328 3.132 28.6808 3.132C29.1208 3.132 29.5088 3.22 29.8448 3.396C30.1808 3.564 30.4568 3.788 30.6728 4.068C30.8968 4.348 31.0648 4.668 31.1768 5.028C31.2888 5.388 31.3448 5.756 31.3448 6.132ZM30.4448 6.12C30.4448 5.84 30.4088 5.564 30.3368 5.292C30.2648 5.02 30.1528 4.78 30.0008 4.572C29.8568 4.356 29.6728 4.184 29.4488 4.056C29.2328 3.928 28.9768 3.864 28.6808 3.864C28.3848 3.864 28.1248 3.928 27.9008 4.056C27.6848 4.184 27.5048 4.356 27.3608 4.572C27.2168 4.78 27.1088 5.02 27.0368 5.292C26.9648 5.556 26.9288 5.828 26.9288 6.108C26.9288 6.396 26.9648 6.676 27.0368 6.948C27.1088 7.22 27.2168 7.464 27.3608 7.68C27.5128 7.888 27.6968 8.06 27.9128 8.196C28.1368 8.324 28.3928 8.388 28.6808 8.388C28.9768 8.388 29.2328 8.324 29.4488 8.196C29.6728 8.06 29.8568 7.888 30.0008 7.68C30.1528 7.464 30.2648 7.22 30.3368 6.948C30.4088 6.676 30.4448 6.4 30.4448 6.12ZM32.7264 9V3.348L33.5544 3.204L33.6384 3.78C33.7904 3.62 33.9864 3.472 34.2264 3.336C34.4664 3.2 34.7104 3.132 34.9584 3.132C35.1344 3.132 35.2944 3.144 35.4384 3.168C35.5904 3.192 35.7064 3.216 35.7864 3.24L35.6184 4.092C35.4024 4.004 35.1504 3.96 34.8624 3.96C34.6304 3.96 34.4064 4.024 34.1904 4.152C33.9824 4.28 33.8024 4.412 33.6504 4.548V9H32.7264ZM36.7694 9V0.995999L37.6934 0.84V5.448L40.0094 3.276H41.1854L39.2294 5.124L41.6894 9H40.6214L38.5454 5.76L37.6934 6.54V9H36.7694ZM42.8002 7.584C42.9362 7.84 43.1082 8.04 43.3162 8.184C43.5322 8.32 43.8202 8.388 44.1802 8.388C44.9642 8.388 45.3562 8.108 45.3562 7.548C45.3562 7.38 45.3282 7.24 45.2722 7.128C45.2242 7.008 45.1402 6.9 45.0202 6.804C44.9082 6.708 44.7602 6.62 44.5762 6.54C44.3922 6.46 44.1682 6.372 43.9042 6.276C43.6162 6.18 43.3722 6.08 43.1722 5.976C42.9722 5.864 42.8082 5.744 42.6802 5.616C42.5522 5.488 42.4562 5.344 42.3922 5.184C42.3362 5.016 42.3082 4.828 42.3082 4.62C42.3082 4.156 42.4762 3.792 42.8122 3.528C43.1562 3.264 43.6082 3.132 44.1682 3.132C44.6322 3.132 45.0202 3.212 45.3322 3.372C45.6442 3.524 45.9082 3.744 46.1242 4.032L45.4762 4.548C45.3162 4.356 45.1282 4.196 44.9122 4.068C44.6962 3.94 44.4522 3.876 44.1802 3.876C43.8442 3.876 43.5922 3.944 43.4242 4.08C43.2642 4.208 43.1842 4.368 43.1842 4.56C43.1842 4.68 43.2042 4.788 43.2442 4.884C43.2922 4.972 43.3722 5.056 43.4842 5.136C43.5962 5.208 43.7402 5.284 43.9162 5.364C44.1002 5.436 44.3322 5.52 44.6122 5.616C45.1402 5.8 45.5402 6.032 45.8122 6.312C46.0842 6.592 46.2202 6.964 46.2202 7.428C46.2202 7.7 46.1682 7.944 46.0642 8.16C45.9602 8.368 45.8162 8.544 45.6322 8.688C45.4562 8.832 45.2442 8.94 44.9962 9.012C44.7482 9.092 44.4762 9.132 44.1802 9.132C43.6122 9.132 43.1682 9.028 42.8482 8.82C42.5282 8.612 42.2722 8.348 42.0802 8.028L42.8002 7.584ZM48.2615 3.204L48.3455 3.696C48.5935 3.496 48.8535 3.352 49.1255 3.264C49.4055 3.176 49.6975 3.132 50.0015 3.132C50.4255 3.132 50.7855 3.212 51.0815 3.372C51.3775 3.532 51.6175 3.748 51.8015 4.02C51.9935 4.292 52.1295 4.608 52.2095 4.968C52.2975 5.32 52.3415 5.688 52.3415 6.072C52.3415 6.536 52.2695 6.956 52.1255 7.332C51.9815 7.708 51.7815 8.032 51.5255 8.304C51.2775 8.568 50.9775 8.772 50.6255 8.916C50.2735 9.06 49.8935 9.132 49.4855 9.132C49.0215 9.132 48.6455 9.068 48.3575 8.94V11.268H47.4335V3.348L48.2615 3.204ZM48.3575 8.136C48.4455 8.2 48.5735 8.26 48.7415 8.316C48.9095 8.364 49.0975 8.388 49.3055 8.388C49.6095 8.388 49.8895 8.336 50.1455 8.232C50.4095 8.128 50.6335 7.98 50.8175 7.788C51.0095 7.596 51.1575 7.36 51.2615 7.08C51.3655 6.792 51.4175 6.468 51.4175 6.108C51.4175 5.844 51.3895 5.58 51.3335 5.316C51.2775 5.044 51.1855 4.804 51.0575 4.596C50.9295 4.38 50.7575 4.208 50.5415 4.08C50.3335 3.944 50.0735 3.876 49.7615 3.876C49.5055 3.876 49.2575 3.932 49.0175 4.044C48.7775 4.156 48.5575 4.304 48.3575 4.488V8.136ZM56.9064 9L56.8584 8.508C56.6584 8.708 56.4264 8.864 56.1624 8.976C55.9064 9.08 55.6224 9.132 55.3104 9.132C55.0624 9.132 54.8184 9.092 54.5784 9.012C54.3464 8.94 54.1384 8.832 53.9544 8.688C53.7784 8.536 53.6344 8.348 53.5224 8.124C53.4104 7.9 53.3544 7.64 53.3544 7.344C53.3544 6.936 53.4624 6.6 53.6784 6.336C53.9024 6.064 54.1824 5.852 54.5184 5.7C54.8544 5.548 55.2264 5.44 55.6344 5.376C56.0424 5.312 56.4384 5.28 56.8224 5.28V5.208C56.8224 4.728 56.7184 4.384 56.5104 4.176C56.3104 3.968 56.0184 3.864 55.6344 3.864C55.3704 3.864 55.1264 3.924 54.9024 4.044C54.6864 4.156 54.5024 4.308 54.3504 4.5L53.7024 4.044C53.9344 3.732 54.2064 3.504 54.5184 3.36C54.8384 3.208 55.2384 3.132 55.7184 3.132C56.3584 3.132 56.8544 3.296 57.2064 3.624C57.5664 3.952 57.7464 4.5 57.7464 5.268V9H56.9064ZM56.8224 6.012C56.5584 6.02 56.2784 6.04 55.9824 6.072C55.6864 6.104 55.4104 6.168 55.1544 6.264C54.9064 6.352 54.6984 6.484 54.5304 6.66C54.3704 6.836 54.2904 7.068 54.2904 7.356C54.2904 7.54 54.3264 7.696 54.3984 7.824C54.4704 7.952 54.5584 8.06 54.6624 8.148C54.7744 8.228 54.8944 8.288 55.0224 8.328C55.1584 8.36 55.2904 8.376 55.4184 8.376C55.6984 8.376 55.9544 8.32 56.1864 8.208C56.4264 8.088 56.6384 7.948 56.8224 7.788V6.012ZM63.9112 7.776C63.6872 8.24 63.3792 8.584 62.9872 8.808C62.6032 9.024 62.1952 9.132 61.7632 9.132C61.4272 9.132 61.0952 9.072 60.7672 8.952C60.4472 8.832 60.1632 8.648 59.9152 8.4C59.6672 8.152 59.4672 7.844 59.3152 7.476C59.1632 7.1 59.0872 6.66 59.0872 6.156C59.0872 5.62 59.1632 5.16 59.3152 4.776C59.4672 4.392 59.6672 4.08 59.9152 3.84C60.1632 3.592 60.4432 3.412 60.7552 3.3C61.0672 3.188 61.3792 3.132 61.6912 3.132C62.0112 3.132 62.2912 3.18 62.5312 3.276C62.7792 3.372 62.9872 3.492 63.1552 3.636C63.3312 3.78 63.4712 3.932 63.5752 4.092C63.6872 4.252 63.7672 4.396 63.8152 4.524L63.1312 4.956C62.9632 4.572 62.7512 4.296 62.4952 4.128C62.2392 3.96 61.9712 3.876 61.6912 3.876C61.4752 3.876 61.2672 3.928 61.0672 4.032C60.8672 4.128 60.6872 4.272 60.5272 4.464C60.3672 4.656 60.2392 4.892 60.1432 5.172C60.0472 5.452 59.9992 5.772 59.9992 6.132C59.9992 6.492 60.0472 6.812 60.1432 7.092C60.2392 7.372 60.3672 7.608 60.5272 7.8C60.6952 7.992 60.8872 8.14 61.1032 8.244C61.3272 8.34 61.5632 8.388 61.8112 8.388C62.0912 8.388 62.3592 8.308 62.6152 8.148C62.8792 7.988 63.0952 7.728 63.2632 7.368L63.9112 7.776ZM65.6124 6.084C65.6124 6.812 65.7764 7.38 66.1044 7.788C66.4324 8.188 66.9084 8.388 67.5324 8.388C67.8924 8.388 68.1964 8.3 68.4444 8.124C68.6924 7.948 68.8924 7.732 69.0444 7.476L69.6564 7.884C69.4484 8.244 69.1764 8.544 68.8404 8.784C68.5124 9.016 68.0684 9.132 67.5084 9.132C67.0764 9.132 66.6884 9.068 66.3444 8.94C66.0004 8.804 65.7044 8.612 65.4564 8.364C65.2164 8.108 65.0284 7.792 64.8924 7.416C64.7644 7.04 64.7004 6.604 64.7004 6.108C64.7004 5.652 64.7604 5.244 64.8804 4.884C65.0084 4.516 65.1804 4.204 65.3964 3.948C65.6204 3.684 65.8884 3.484 66.2004 3.348C66.5204 3.204 66.8724 3.132 67.2564 3.132C67.6804 3.132 68.0484 3.204 68.3604 3.348C68.6804 3.492 68.9444 3.696 69.1524 3.96C69.3604 4.216 69.5164 4.528 69.6204 4.896C69.7244 5.256 69.7764 5.652 69.7764 6.084H65.6124ZM68.7324 5.352C68.7244 5.104 68.6764 4.888 68.5884 4.704C68.5004 4.512 68.3884 4.356 68.2524 4.236C68.1164 4.108 67.9604 4.016 67.7844 3.96C67.6084 3.896 67.4324 3.864 67.2564 3.864C66.8724 3.864 66.5404 3.98 66.2604 4.212C65.9884 4.436 65.8004 4.816 65.6964 5.352H68.7324ZM73.4005 8.172L73.0645 7.308L76.9405 5.808L73.2205 4.416L73.5325 3.588L78.4645 5.484V6.18L73.4005 8.172ZM90.8417 4.884C90.8417 5.444 90.7777 5.948 90.6497 6.396C90.5217 6.836 90.3417 7.22 90.1097 7.548C89.8857 7.876 89.6177 8.148 89.3057 8.364C88.9937 8.58 88.6577 8.74 88.2977 8.844C88.1137 8.9 87.8937 8.94 87.6377 8.964C87.3897 8.988 87.1657 9 86.9657 9H84.9017V0.995999H86.9657C87.2777 0.995999 87.6017 1.024 87.9377 1.08C88.2737 1.128 88.5857 1.22 88.8737 1.356C89.1617 1.492 89.4257 1.668 89.6657 1.884C89.9057 2.092 90.1097 2.344 90.2777 2.64C90.4537 2.936 90.5897 3.272 90.6857 3.648C90.7897 4.016 90.8417 4.428 90.8417 4.884ZM89.8217 4.932C89.8217 4.236 89.7137 3.676 89.4977 3.252C89.2897 2.828 89.0017 2.496 88.6337 2.256C88.4017 2.104 88.1257 1.996 87.8057 1.932C87.4937 1.86 87.1897 1.824 86.8937 1.824H85.8617V8.172H86.8457C87.0217 8.172 87.2217 8.164 87.4457 8.148C87.6697 8.132 87.8737 8.084 88.0577 8.004C88.2977 7.908 88.5257 7.776 88.7417 7.608C88.9577 7.44 89.1457 7.232 89.3057 6.984C89.4657 6.736 89.5897 6.444 89.6777 6.108C89.7737 5.772 89.8217 5.38 89.8217 4.932ZM95.2033 9L95.1553 8.508C94.9553 8.708 94.7233 8.864 94.4593 8.976C94.2033 9.08 93.9193 9.132 93.6073 9.132C93.3593 9.132 93.1153 9.092 92.8753 9.012C92.6433 8.94 92.4353 8.832 92.2513 8.688C92.0753 8.536 91.9313 8.348 91.8193 8.124C91.7073 7.9 91.6513 7.64 91.6513 7.344C91.6513 6.936 91.7593 6.6 91.9753 6.336C92.1993 6.064 92.4793 5.852 92.8153 5.7C93.1513 5.548 93.5233 5.44 93.9313 5.376C94.3393 5.312 94.7353 5.28 95.1193 5.28V5.208C95.1193 4.728 95.0153 4.384 94.8073 4.176C94.6073 3.968 94.3153 3.864 93.9313 3.864C93.6673 3.864 93.4233 3.924 93.1993 4.044C92.9833 4.156 92.7993 4.308 92.6473 4.5L91.9993 4.044C92.2313 3.732 92.5033 3.504 92.8153 3.36C93.1353 3.208 93.5353 3.132 94.0153 3.132C94.6553 3.132 95.1513 3.296 95.5033 3.624C95.8633 3.952 96.0433 4.5 96.0433 5.268V9H95.2033ZM95.1193 6.012C94.8553 6.02 94.5753 6.04 94.2793 6.072C93.9833 6.104 93.7073 6.168 93.4513 6.264C93.2033 6.352 92.9953 6.484 92.8273 6.66C92.6673 6.836 92.5873 7.068 92.5873 7.356C92.5873 7.54 92.6233 7.696 92.6953 7.824C92.7673 7.952 92.8553 8.06 92.9593 8.148C93.0713 8.228 93.1913 8.288 93.3193 8.328C93.4553 8.36 93.5873 8.376 93.7153 8.376C93.9953 8.376 94.2513 8.32 94.4833 8.208C94.7233 8.088 94.9353 7.948 95.1193 7.788V6.012ZM102.268 3.276L99.34 10.512C99.196 10.864 98.992 11.104 98.728 11.232C98.472 11.36 98.204 11.424 97.924 11.424C97.74 11.424 97.544 11.396 97.336 11.34C97.136 11.292 96.98 11.244 96.868 11.196L97.132 10.512C97.22 10.544 97.328 10.572 97.456 10.596C97.592 10.628 97.728 10.644 97.864 10.644C98.048 10.644 98.192 10.6 98.296 10.512C98.4 10.424 98.508 10.252 98.62 9.996L99.088 8.856L96.832 3.276H97.888L99.58 7.68L101.272 3.276H102.268ZM111.164 7.548C111.06 7.74 110.932 7.932 110.78 8.124C110.628 8.316 110.448 8.488 110.24 8.64C110.032 8.792 109.792 8.916 109.52 9.012C109.248 9.108 108.94 9.156 108.596 9.156C108.124 9.156 107.684 9.08 107.276 8.928C106.876 8.768 106.524 8.524 106.22 8.196C105.924 7.86 105.688 7.432 105.512 6.912C105.344 6.392 105.26 5.764 105.26 5.028C105.26 4.284 105.352 3.648 105.536 3.12C105.72 2.584 105.96 2.148 106.256 1.812C106.56 1.476 106.9 1.232 107.276 1.08C107.66 0.92 108.048 0.84 108.44 0.84C109.048 0.84 109.588 0.988 110.06 1.284C110.532 1.58 110.884 1.98 111.116 2.484L110.336 2.952C110.264 2.808 110.168 2.664 110.048 2.52C109.936 2.368 109.8 2.236 109.64 2.124C109.488 2.004 109.316 1.908 109.124 1.836C108.94 1.756 108.74 1.716 108.524 1.716C107.82 1.716 107.268 2.004 106.868 2.58C106.476 3.148 106.28 3.968 106.28 5.04C106.28 5.56 106.34 6.024 106.46 6.432C106.58 6.832 106.744 7.172 106.952 7.452C107.16 7.724 107.404 7.932 107.684 8.076C107.972 8.212 108.28 8.28 108.608 8.28C108.84 8.28 109.044 8.248 109.22 8.184C109.404 8.12 109.568 8.036 109.712 7.932C109.864 7.82 109.996 7.692 110.108 7.548C110.228 7.396 110.336 7.24 110.432 7.08L111.164 7.548ZM115.512 9L115.464 8.508C115.264 8.708 115.032 8.864 114.768 8.976C114.512 9.08 114.228 9.132 113.916 9.132C113.668 9.132 113.424 9.092 113.184 9.012C112.952 8.94 112.744 8.832 112.56 8.688C112.384 8.536 112.24 8.348 112.128 8.124C112.016 7.9 111.96 7.64 111.96 7.344C111.96 6.936 112.068 6.6 112.284 6.336C112.508 6.064 112.788 5.852 113.124 5.7C113.46 5.548 113.832 5.44 114.24 5.376C114.648 5.312 115.044 5.28 115.428 5.28V5.208C115.428 4.728 115.324 4.384 115.116 4.176C114.916 3.968 114.624 3.864 114.24 3.864C113.976 3.864 113.732 3.924 113.508 4.044C113.292 4.156 113.108 4.308 112.956 4.5L112.308 4.044C112.54 3.732 112.812 3.504 113.124 3.36C113.444 3.208 113.844 3.132 114.324 3.132C114.964 3.132 115.46 3.296 115.812 3.624C116.172 3.952 116.352 4.5 116.352 5.268V9H115.512ZM115.428 6.012C115.164 6.02 114.884 6.04 114.588 6.072C114.292 6.104 114.016 6.168 113.76 6.264C113.512 6.352 113.304 6.484 113.136 6.66C112.976 6.836 112.896 7.068 112.896 7.356C112.896 7.54 112.932 7.696 113.004 7.824C113.076 7.952 113.164 8.06 113.268 8.148C113.38 8.228 113.5 8.288 113.628 8.328C113.764 8.36 113.896 8.376 114.024 8.376C114.304 8.376 114.56 8.32 114.792 8.208C115.032 8.088 115.244 7.948 115.428 7.788V6.012ZM117.969 9V3.348L118.797 3.204L118.881 3.78C119.033 3.62 119.229 3.472 119.469 3.336C119.709 3.2 119.953 3.132 120.201 3.132C120.377 3.132 120.537 3.144 120.681 3.168C120.833 3.192 120.949 3.216 121.029 3.24L120.861 4.092C120.645 4.004 120.393 3.96 120.105 3.96C119.873 3.96 119.649 4.024 119.433 4.152C119.225 4.28 119.045 4.412 118.893 4.548V9H117.969ZM122.355 6.084C122.355 6.812 122.519 7.38 122.847 7.788C123.175 8.188 123.651 8.388 124.275 8.388C124.635 8.388 124.939 8.3 125.187 8.124C125.435 7.948 125.635 7.732 125.787 7.476L126.399 7.884C126.191 8.244 125.919 8.544 125.583 8.784C125.255 9.016 124.811 9.132 124.251 9.132C123.819 9.132 123.431 9.068 123.087 8.94C122.743 8.804 122.447 8.612 122.199 8.364C121.959 8.108 121.771 7.792 121.635 7.416C121.507 7.04 121.443 6.604 121.443 6.108C121.443 5.652 121.503 5.244 121.623 4.884C121.751 4.516 121.923 4.204 122.139 3.948C122.363 3.684 122.631 3.484 122.943 3.348C123.263 3.204 123.615 3.132 123.999 3.132C124.423 3.132 124.791 3.204 125.103 3.348C125.423 3.492 125.687 3.696 125.895 3.96C126.103 4.216 126.259 4.528 126.363 4.896C126.467 5.256 126.519 5.652 126.519 6.084H122.355ZM125.475 5.352C125.467 5.104 125.419 4.888 125.331 4.704C125.243 4.512 125.131 4.356 124.995 4.236C124.859 4.108 124.703 4.016 124.527 3.96C124.351 3.896 124.175 3.864 123.999 3.864C123.615 3.864 123.283 3.98 123.003 4.212C122.731 4.436 122.543 4.816 122.439 5.352H125.475ZM130.503 7.284C130.735 7.62 131.039 7.872 131.415 8.04C131.791 8.208 132.175 8.292 132.567 8.292C132.775 8.292 132.971 8.268 133.155 8.22C133.347 8.164 133.511 8.084 133.647 7.98C133.791 7.868 133.903 7.724 133.983 7.548C134.071 7.372 134.115 7.164 134.115 6.924C134.115 6.7 134.063 6.504 133.959 6.336C133.855 6.16 133.715 6.004 133.539 5.868C133.363 5.732 133.163 5.612 132.939 5.508C132.715 5.396 132.483 5.288 132.243 5.184C131.971 5.064 131.699 4.944 131.427 4.824C131.163 4.696 130.927 4.544 130.719 4.368C130.511 4.192 130.339 3.988 130.203 3.756C130.075 3.524 130.011 3.24 130.011 2.904C130.011 2.56 130.079 2.26 130.215 2.004C130.359 1.74 130.547 1.524 130.779 1.356C131.019 1.18 131.287 1.052 131.583 0.972C131.887 0.884 132.203 0.84 132.531 0.84C133.035 0.84 133.519 0.94 133.983 1.14C134.447 1.34 134.823 1.656 135.111 2.088L134.379 2.664C134.171 2.376 133.903 2.144 133.575 1.968C133.255 1.784 132.903 1.692 132.519 1.692C132.039 1.692 131.671 1.796 131.415 2.004C131.159 2.212 131.031 2.496 131.031 2.856C131.031 3.056 131.075 3.228 131.163 3.372C131.259 3.508 131.387 3.632 131.547 3.744C131.715 3.856 131.915 3.968 132.147 4.08C132.379 4.184 132.639 4.3 132.927 4.428C133.199 4.556 133.467 4.688 133.731 4.824C133.995 4.96 134.231 5.12 134.439 5.304C134.647 5.48 134.815 5.692 134.943 5.94C135.071 6.188 135.135 6.484 135.135 6.828C135.135 7.236 135.063 7.588 134.919 7.884C134.783 8.18 134.595 8.424 134.355 8.616C134.115 8.808 133.835 8.948 133.515 9.036C133.203 9.124 132.867 9.168 132.507 9.168C132.235 9.168 131.963 9.136 131.691 9.072C131.427 9.016 131.171 8.932 130.923 8.82C130.683 8.708 130.459 8.572 130.251 8.412C130.051 8.244 129.883 8.056 129.747 7.848L130.503 7.284ZM137.29 3.192V6.948C137.29 7.452 137.406 7.82 137.638 8.052C137.87 8.276 138.214 8.388 138.67 8.388C138.966 8.388 139.258 8.328 139.546 8.208C139.842 8.08 140.082 7.928 140.266 7.752V3.276H141.202V9H140.35L140.29 8.556C140.058 8.732 139.806 8.872 139.534 8.976C139.262 9.08 138.922 9.132 138.514 9.132C137.762 9.132 137.214 8.948 136.87 8.58C136.534 8.212 136.366 7.652 136.366 6.9V3.348L137.29 3.192ZM143.687 3.204L143.771 3.696C144.019 3.496 144.279 3.352 144.551 3.264C144.831 3.176 145.123 3.132 145.427 3.132C145.851 3.132 146.211 3.212 146.507 3.372C146.803 3.532 147.043 3.748 147.227 4.02C147.419 4.292 147.555 4.608 147.635 4.968C147.723 5.32 147.767 5.688 147.767 6.072C147.767 6.536 147.695 6.956 147.551 7.332C147.407 7.708 147.207 8.032 146.951 8.304C146.703 8.568 146.403 8.772 146.051 8.916C145.699 9.06 145.319 9.132 144.911 9.132C144.447 9.132 144.071 9.068 143.783 8.94V11.268H142.859V3.348L143.687 3.204ZM143.783 8.136C143.871 8.2 143.999 8.26 144.167 8.316C144.335 8.364 144.523 8.388 144.731 8.388C145.035 8.388 145.315 8.336 145.571 8.232C145.835 8.128 146.059 7.98 146.243 7.788C146.435 7.596 146.583 7.36 146.687 7.08C146.791 6.792 146.843 6.468 146.843 6.108C146.843 5.844 146.815 5.58 146.759 5.316C146.703 5.044 146.611 4.804 146.483 4.596C146.355 4.38 146.183 4.208 145.967 4.08C145.759 3.944 145.499 3.876 145.187 3.876C144.931 3.876 144.683 3.932 144.443 4.044C144.203 4.156 143.983 4.304 143.783 4.488V8.136ZM149.98 3.204L150.064 3.696C150.312 3.496 150.572 3.352 150.844 3.264C151.124 3.176 151.416 3.132 151.72 3.132C152.144 3.132 152.504 3.212 152.8 3.372C153.096 3.532 153.336 3.748 153.52 4.02C153.712 4.292 153.848 4.608 153.928 4.968C154.016 5.32 154.06 5.688 154.06 6.072C154.06 6.536 153.988 6.956 153.844 7.332C153.7 7.708 153.5 8.032 153.244 8.304C152.996 8.568 152.696 8.772 152.344 8.916C151.992 9.06 151.612 9.132 151.204 9.132C150.74 9.132 150.364 9.068 150.076 8.94V11.268H149.152V3.348L149.98 3.204ZM150.076 8.136C150.164 8.2 150.292 8.26 150.46 8.316C150.628 8.364 150.816 8.388 151.024 8.388C151.328 8.388 151.608 8.336 151.864 8.232C152.128 8.128 152.352 7.98 152.536 7.788C152.728 7.596 152.876 7.36 152.98 7.08C153.084 6.792 153.136 6.468 153.136 6.108C153.136 5.844 153.108 5.58 153.052 5.316C152.996 5.044 152.904 4.804 152.776 4.596C152.648 4.38 152.476 4.208 152.26 4.08C152.052 3.944 151.792 3.876 151.48 3.876C151.224 3.876 150.976 3.932 150.736 4.044C150.496 4.156 150.276 4.304 150.076 4.488V8.136ZM160.497 6.132C160.497 6.508 160.441 6.876 160.329 7.236C160.217 7.596 160.049 7.916 159.825 8.196C159.609 8.476 159.333 8.704 158.997 8.88C158.661 9.048 158.273 9.132 157.833 9.132C157.393 9.132 157.005 9.048 156.669 8.88C156.341 8.704 156.065 8.476 155.841 8.196C155.617 7.908 155.449 7.584 155.337 7.224C155.225 6.856 155.169 6.484 155.169 6.108C155.169 5.732 155.221 5.368 155.325 5.016C155.437 4.656 155.605 4.336 155.829 4.056C156.053 3.776 156.329 3.552 156.657 3.384C156.993 3.216 157.385 3.132 157.833 3.132C158.273 3.132 158.661 3.22 158.997 3.396C159.333 3.564 159.609 3.788 159.825 4.068C160.049 4.348 160.217 4.668 160.329 5.028C160.441 5.388 160.497 5.756 160.497 6.132ZM159.597 6.12C159.597 5.84 159.561 5.564 159.489 5.292C159.417 5.02 159.305 4.78 159.153 4.572C159.009 4.356 158.825 4.184 158.601 4.056C158.385 3.928 158.129 3.864 157.833 3.864C157.537 3.864 157.277 3.928 157.053 4.056C156.837 4.184 156.657 4.356 156.513 4.572C156.369 4.78 156.261 5.02 156.189 5.292C156.117 5.556 156.081 5.828 156.081 6.108C156.081 6.396 156.117 6.676 156.189 6.948C156.261 7.22 156.369 7.464 156.513 7.68C156.665 7.888 156.849 8.06 157.065 8.196C157.289 8.324 157.545 8.388 157.833 8.388C158.129 8.388 158.385 8.324 158.601 8.196C158.825 8.06 159.009 7.888 159.153 7.68C159.305 7.464 159.417 7.22 159.489 6.948C159.561 6.676 159.597 6.4 159.597 6.12ZM161.879 9V3.348L162.707 3.204L162.791 3.78C162.943 3.62 163.139 3.472 163.379 3.336C163.619 3.2 163.863 3.132 164.111 3.132C164.287 3.132 164.447 3.144 164.591 3.168C164.743 3.192 164.859 3.216 164.939 3.24L164.771 4.092C164.555 4.004 164.303 3.96 164.015 3.96C163.783 3.96 163.559 4.024 163.343 4.152C163.135 4.28 162.955 4.412 162.803 4.548V9H161.879ZM167.276 4.032V7.692C167.276 7.972 167.328 8.16 167.432 8.256C167.544 8.344 167.684 8.388 167.852 8.388C168.004 8.388 168.148 8.356 168.284 8.292C168.42 8.228 168.544 8.152 168.656 8.064L169.016 8.688C168.832 8.824 168.648 8.932 168.464 9.012C168.288 9.092 168.036 9.132 167.708 9.132C167.276 9.132 166.944 9.024 166.712 8.808C166.48 8.584 166.364 8.244 166.364 7.788V4.032H165.38V3.276H166.364V1.8L167.288 1.632V3.276H168.848L168.716 4.032H167.276ZM172.464 9V0.995999H175.032C175.928 0.995999 176.588 1.196 177.012 1.596C177.436 1.996 177.648 2.524 177.648 3.18C177.648 3.532 177.596 3.84 177.492 4.104C177.396 4.36 177.256 4.58 177.072 4.764C176.896 4.948 176.684 5.096 176.436 5.208C176.196 5.312 175.936 5.388 175.656 5.436L177.84 9H176.748L174.588 5.496H173.424V9H172.464ZM173.424 4.668H174.972C176.084 4.668 176.64 4.172 176.64 3.18C176.64 2.724 176.504 2.384 176.232 2.16C175.96 1.936 175.568 1.824 175.056 1.824H173.424V4.668ZM179.331 6.084C179.331 6.812 179.495 7.38 179.823 7.788C180.151 8.188 180.627 8.388 181.251 8.388C181.611 8.388 181.915 8.3 182.163 8.124C182.411 7.948 182.611 7.732 182.763 7.476L183.375 7.884C183.167 8.244 182.895 8.544 182.559 8.784C182.231 9.016 181.787 9.132 181.227 9.132C180.795 9.132 180.407 9.068 180.063 8.94C179.719 8.804 179.423 8.612 179.175 8.364C178.935 8.108 178.747 7.792 178.611 7.416C178.483 7.04 178.419 6.604 178.419 6.108C178.419 5.652 178.479 5.244 178.599 4.884C178.727 4.516 178.899 4.204 179.115 3.948C179.339 3.684 179.607 3.484 179.919 3.348C180.239 3.204 180.591 3.132 180.975 3.132C181.399 3.132 181.767 3.204 182.079 3.348C182.399 3.492 182.663 3.696 182.871 3.96C183.079 4.216 183.235 4.528 183.339 4.896C183.443 5.256 183.495 5.652 183.495 6.084H179.331ZM182.451 5.352C182.443 5.104 182.395 4.888 182.307 4.704C182.219 4.512 182.107 4.356 181.971 4.236C181.835 4.108 181.679 4.016 181.503 3.96C181.327 3.896 181.151 3.864 180.975 3.864C180.591 3.864 180.259 3.98 179.979 4.212C179.707 4.436 179.519 4.816 179.415 5.352H182.451ZM185.257 2.364C185.089 2.364 184.945 2.3 184.825 2.172C184.705 2.036 184.645 1.872 184.645 1.68C184.645 1.496 184.705 1.336 184.825 1.2C184.945 1.064 185.089 0.995999 185.257 0.995999C185.425 0.995999 185.569 1.064 185.689 1.2C185.809 1.336 185.869 1.496 185.869 1.68C185.869 1.872 185.809 2.036 185.689 2.172C185.569 2.3 185.425 2.364 185.257 2.364ZM185.713 9H184.789V3.36L185.713 3.192V9ZM194.747 9V5.424C194.747 4.944 194.655 4.572 194.471 4.308C194.287 4.036 193.951 3.9 193.463 3.9C193.303 3.9 193.143 3.924 192.983 3.972C192.823 4.012 192.671 4.064 192.527 4.128C192.391 4.192 192.263 4.26 192.143 4.332C192.031 4.404 191.935 4.472 191.855 4.536C191.895 4.672 191.923 4.816 191.939 4.968C191.963 5.112 191.975 5.304 191.975 5.544V9H191.051V5.424C191.051 5.216 191.031 5.02 190.991 4.836C190.959 4.652 190.895 4.492 190.799 4.356C190.711 4.212 190.591 4.1 190.439 4.02C190.287 3.94 190.091 3.9 189.851 3.9C189.571 3.9 189.291 3.972 189.011 4.116C188.739 4.252 188.499 4.392 188.291 4.536V9H187.367V3.348L188.207 3.204L188.279 3.732C188.471 3.596 188.719 3.464 189.023 3.336C189.327 3.2 189.659 3.132 190.019 3.132C190.323 3.132 190.615 3.184 190.895 3.288C191.183 3.392 191.423 3.584 191.615 3.864C191.855 3.664 192.147 3.492 192.491 3.348C192.835 3.204 193.211 3.132 193.619 3.132C194.019 3.132 194.351 3.188 194.615 3.3C194.887 3.404 195.099 3.56 195.251 3.768C195.411 3.968 195.523 4.22 195.587 4.524C195.651 4.82 195.683 5.16 195.683 5.544V9H194.747ZM198.229 0.84V3.456C198.477 3.344 198.713 3.264 198.937 3.216C199.169 3.168 199.397 3.144 199.621 3.144C199.989 3.144 200.333 3.212 200.653 3.348C200.973 3.476 201.245 3.668 201.469 3.924C201.701 4.172 201.881 4.484 202.009 4.86C202.145 5.228 202.213 5.656 202.213 6.144C202.213 6.6 202.141 7.012 201.997 7.38C201.853 7.748 201.653 8.064 201.397 8.328C201.141 8.584 200.837 8.784 200.485 8.928C200.141 9.064 199.765 9.132 199.357 9.132C198.917 9.132 198.521 9.088 198.169 9C197.825 8.904 197.537 8.804 197.305 8.7V0.995999L198.229 0.84ZM198.229 8.184C198.381 8.248 198.545 8.3 198.721 8.34C198.897 8.38 199.065 8.4 199.225 8.4C199.545 8.4 199.833 8.348 200.089 8.244C200.353 8.132 200.573 7.976 200.749 7.776C200.933 7.576 201.073 7.336 201.169 7.056C201.265 6.776 201.313 6.464 201.313 6.12C201.313 5.776 201.265 5.468 201.169 5.196C201.073 4.916 200.941 4.68 200.773 4.488C200.605 4.296 200.409 4.152 200.185 4.056C199.961 3.952 199.717 3.9 199.453 3.9C199.261 3.9 199.061 3.928 198.853 3.984C198.645 4.032 198.437 4.124 198.229 4.26V8.184ZM204.486 3.192V6.948C204.486 7.452 204.602 7.82 204.834 8.052C205.066 8.276 205.41 8.388 205.866 8.388C206.162 8.388 206.454 8.328 206.742 8.208C207.038 8.08 207.278 7.928 207.462 7.752V3.276H208.398V9H207.546L207.486 8.556C207.254 8.732 207.002 8.872 206.73 8.976C206.458 9.08 206.118 9.132 205.71 9.132C204.958 9.132 204.41 8.948 204.066 8.58C203.73 8.212 203.562 7.652 203.562 6.9V3.348L204.486 3.192ZM210.055 9V3.348L210.883 3.204L210.967 3.78C211.119 3.62 211.315 3.472 211.555 3.336C211.795 3.2 212.039 3.132 212.287 3.132C212.463 3.132 212.623 3.144 212.767 3.168C212.919 3.192 213.035 3.216 213.115 3.24L212.947 4.092C212.731 4.004 212.479 3.96 212.191 3.96C211.959 3.96 211.735 4.024 211.519 4.152C211.311 4.28 211.131 4.412 210.979 4.548V9H210.055ZM214.117 7.584C214.253 7.84 214.425 8.04 214.633 8.184C214.849 8.32 215.137 8.388 215.497 8.388C216.281 8.388 216.673 8.108 216.673 7.548C216.673 7.38 216.645 7.24 216.589 7.128C216.541 7.008 216.457 6.9 216.337 6.804C216.225 6.708 216.077 6.62 215.893 6.54C215.709 6.46 215.485 6.372 215.221 6.276C214.933 6.18 214.689 6.08 214.489 5.976C214.289 5.864 214.125 5.744 213.997 5.616C213.869 5.488 213.773 5.344 213.709 5.184C213.653 5.016 213.625 4.828 213.625 4.62C213.625 4.156 213.793 3.792 214.129 3.528C214.473 3.264 214.925 3.132 215.485 3.132C215.949 3.132 216.337 3.212 216.649 3.372C216.961 3.524 217.225 3.744 217.441 4.032L216.793 4.548C216.633 4.356 216.445 4.196 216.229 4.068C216.013 3.94 215.769 3.876 215.497 3.876C215.161 3.876 214.909 3.944 214.741 4.08C214.581 4.208 214.501 4.368 214.501 4.56C214.501 4.68 214.521 4.788 214.561 4.884C214.609 4.972 214.689 5.056 214.801 5.136C214.913 5.208 215.057 5.284 215.233 5.364C215.417 5.436 215.649 5.52 215.929 5.616C216.457 5.8 216.857 6.032 217.129 6.312C217.401 6.592 217.537 6.964 217.537 7.428C217.537 7.7 217.485 7.944 217.381 8.16C217.277 8.368 217.133 8.544 216.949 8.688C216.773 8.832 216.561 8.94 216.313 9.012C216.065 9.092 215.793 9.132 215.497 9.132C214.929 9.132 214.485 9.028 214.165 8.82C213.845 8.612 213.589 8.348 213.397 8.028L214.117 7.584ZM219.386 6.084C219.386 6.812 219.55 7.38 219.878 7.788C220.206 8.188 220.682 8.388 221.306 8.388C221.666 8.388 221.97 8.3 222.218 8.124C222.466 7.948 222.666 7.732 222.818 7.476L223.43 7.884C223.222 8.244 222.95 8.544 222.614 8.784C222.286 9.016 221.842 9.132 221.282 9.132C220.85 9.132 220.462 9.068 220.118 8.94C219.774 8.804 219.478 8.612 219.23 8.364C218.99 8.108 218.802 7.792 218.666 7.416C218.538 7.04 218.474 6.604 218.474 6.108C218.474 5.652 218.534 5.244 218.654 4.884C218.782 4.516 218.954 4.204 219.17 3.948C219.394 3.684 219.662 3.484 219.974 3.348C220.294 3.204 220.646 3.132 221.03 3.132C221.454 3.132 221.822 3.204 222.134 3.348C222.454 3.492 222.718 3.696 222.926 3.96C223.134 4.216 223.29 4.528 223.394 4.896C223.498 5.256 223.55 5.652 223.55 6.084H219.386ZM222.506 5.352C222.498 5.104 222.45 4.888 222.362 4.704C222.274 4.512 222.162 4.356 222.026 4.236C221.89 4.108 221.734 4.016 221.558 3.96C221.382 3.896 221.206 3.864 221.03 3.864C220.646 3.864 220.314 3.98 220.034 4.212C219.762 4.436 219.574 4.816 219.47 5.352H222.506ZM232.224 9V5.424C232.224 4.944 232.132 4.572 231.948 4.308C231.764 4.036 231.428 3.9 230.94 3.9C230.78 3.9 230.62 3.924 230.46 3.972C230.3 4.012 230.148 4.064 230.004 4.128C229.868 4.192 229.74 4.26 229.62 4.332C229.508 4.404 229.412 4.472 229.332 4.536C229.372 4.672 229.4 4.816 229.416 4.968C229.44 5.112 229.452 5.304 229.452 5.544V9H228.528V5.424C228.528 5.216 228.508 5.02 228.468 4.836C228.436 4.652 228.372 4.492 228.276 4.356C228.188 4.212 228.068 4.1 227.916 4.02C227.764 3.94 227.568 3.9 227.328 3.9C227.048 3.9 226.768 3.972 226.488 4.116C226.216 4.252 225.976 4.392 225.768 4.536V9H224.844V3.348L225.684 3.204L225.756 3.732C225.948 3.596 226.196 3.464 226.5 3.336C226.804 3.2 227.136 3.132 227.496 3.132C227.8 3.132 228.092 3.184 228.372 3.288C228.66 3.392 228.9 3.584 229.092 3.864C229.332 3.664 229.624 3.492 229.968 3.348C230.312 3.204 230.688 3.132 231.096 3.132C231.496 3.132 231.828 3.188 232.092 3.3C232.364 3.404 232.576 3.56 232.728 3.768C232.888 3.968 233 4.22 233.064 4.524C233.128 4.82 233.16 5.16 233.16 5.544V9H232.224ZM235.417 6.084C235.417 6.812 235.581 7.38 235.909 7.788C236.237 8.188 236.713 8.388 237.337 8.388C237.697 8.388 238.001 8.3 238.249 8.124C238.497 7.948 238.697 7.732 238.849 7.476L239.461 7.884C239.253 8.244 238.981 8.544 238.645 8.784C238.317 9.016 237.873 9.132 237.313 9.132C236.881 9.132 236.493 9.068 236.149 8.94C235.805 8.804 235.509 8.612 235.261 8.364C235.021 8.108 234.833 7.792 234.697 7.416C234.569 7.04 234.505 6.604 234.505 6.108C234.505 5.652 234.565 5.244 234.685 4.884C234.813 4.516 234.985 4.204 235.201 3.948C235.425 3.684 235.693 3.484 236.005 3.348C236.325 3.204 236.677 3.132 237.061 3.132C237.485 3.132 237.853 3.204 238.165 3.348C238.485 3.492 238.749 3.696 238.957 3.96C239.165 4.216 239.321 4.528 239.425 4.896C239.529 5.256 239.581 5.652 239.581 6.084H235.417ZM238.537 5.352C238.529 5.104 238.481 4.888 238.393 4.704C238.305 4.512 238.193 4.356 238.057 4.236C237.921 4.108 237.765 4.016 237.589 3.96C237.413 3.896 237.237 3.864 237.061 3.864C236.677 3.864 236.345 3.98 236.065 4.212C235.793 4.436 235.605 4.816 235.501 5.352H238.537ZM241.715 3.204L241.787 3.732C242.019 3.556 242.291 3.412 242.603 3.3C242.923 3.188 243.255 3.132 243.599 3.132C244.383 3.132 244.935 3.328 245.255 3.72C245.583 4.104 245.747 4.676 245.747 5.436V9H244.823V5.412C244.823 4.932 244.715 4.556 244.499 4.284C244.283 4.012 243.931 3.876 243.443 3.876C243.139 3.876 242.839 3.944 242.543 4.08C242.255 4.208 242.007 4.352 241.799 4.512V9H240.875V3.348L241.715 3.204ZM248.663 4.032V7.692C248.663 7.972 248.715 8.16 248.819 8.256C248.931 8.344 249.071 8.388 249.239 8.388C249.391 8.388 249.535 8.356 249.671 8.292C249.807 8.228 249.931 8.152 250.043 8.064L250.403 8.688C250.219 8.824 250.035 8.932 249.851 9.012C249.675 9.092 249.423 9.132 249.095 9.132C248.663 9.132 248.331 9.024 248.099 8.808C247.867 8.584 247.751 8.244 247.751 7.788V4.032H246.767V3.276H247.751V1.8L248.675 1.632V3.276H250.235L250.103 4.032H248.663Z" fill="#202224"/>
</svg>
